<svg xmlns="http://www.w3.org/2000/svg" width="610" height="531.362" viewBox="0 0 610 531.362">
  <g id="Grupo_173273" data-name="Grupo 173273" transform="translate(-810 -9888.936)">
    <path id="Trazado_240520" data-name="Trazado 240520" d="M781.988,1018.383H591.825a10.608,10.608,0,0,1-10.608-10.608V751.483a10.608,10.608,0,0,1,10.608-10.608H781.988A10.608,10.608,0,0,1,792.6,751.483v256.292a10.608,10.608,0,0,1-10.608,10.608" transform="translate(427.665 9401.573)" fill="#ebf2ff"/>
    <path id="Trazado_240521" data-name="Trazado 240521" d="M1612.89,1342.559H1551.3a10.608,10.608,0,0,1-10.608-10.608V1270.14a10.608,10.608,0,0,1,10.608-10.608h61.587a10.608,10.608,0,0,1,10.608,10.608v61.812a10.608,10.608,0,0,1-10.608,10.608" transform="translate(-203.498 9060.392)" fill="#ebf2ff"/>
    <path id="Trazado_240522" data-name="Trazado 240522" d="M91.326,1197.61H46.379A10.608,10.608,0,0,1,35.771,1187v-44.947a10.608,10.608,0,0,1,10.608-10.608H91.326a10.608,10.608,0,0,1,10.608,10.608V1187a10.608,10.608,0,0,1-10.608,10.608" transform="translate(786.469 9144.647)" fill="#ebf2ff"/>
    <path id="Trazado_241280" data-name="Trazado 241280" d="M0,0H8.149V30.973H0Z" transform="translate(1054.506 10023.217)" fill="#ffc861"/>
    <path id="Trazado_241281" data-name="Trazado 241281" d="M0,0H16.757V16.757H0Z" transform="translate(1050.201 10023.217)" fill="#3c89ff"/>
    <path id="Trazado_241282" data-name="Trazado 241282" d="M0,0H8.149V30.973H0Z" transform="translate(1110.42 10023.217)" fill="#ffc861"/>
    <path id="Trazado_241283" data-name="Trazado 241283" d="M0,0H16.757V16.757H0Z" transform="translate(1106.116 10023.217)" fill="#3c89ff"/>
    <path id="Trazado_241284" data-name="Trazado 241284" d="M0,0H8.149V30.973H0Z" transform="translate(1166.334 10023.217)" fill="#ffc861"/>
    <path id="Trazado_241285" data-name="Trazado 241285" d="M0,0H16.757V16.757H0Z" transform="translate(1162.03 10023.217)" fill="#3c89ff"/>
    <path id="Trazado_240523" data-name="Trazado 240523" d="M752.7,86.747a21.577,21.577,0,0,0-6.3.935C749.039,65.155,727.79,45.83,705.629,50.5a64.827,64.827,0,0,0-11.273-24.489C664.339-15.477,597.973-5.265,581.139,42a45.135,45.135,0,0,0-41.015,7.669c-33.3,25.084-14.16,81.166,27.813,80.318H752.7A21.6,21.6,0,0,0,771.4,119.217c8.468-13.841-2.4-32.884-18.695-32.471" transform="translate(465.856 9888.933)" fill="#3c89ff"/>
    <path id="Trazado_240524" data-name="Trazado 240524" d="M737.132,225.072v10.639h-7.384V203.882h11.229a18.522,18.522,0,0,1,5.778.8,11.1,11.1,0,0,1,3.976,2.2,8.57,8.57,0,0,1,2.3,3.3,11.2,11.2,0,0,1,.743,4.107,12.082,12.082,0,0,1-.765,4.369,8.765,8.765,0,0,1-2.337,3.408,11.012,11.012,0,0,1-3.987,2.217,18.271,18.271,0,0,1-5.713.8Zm0-5.571h3.845a4.685,4.685,0,0,0,5.418-5.221,5.748,5.748,0,0,0-.328-1.988,4.043,4.043,0,0,0-.994-1.54,4.478,4.478,0,0,0-1.683-.994,7.447,7.447,0,0,0-2.414-.349h-3.845Z" transform="translate(329.958 9754.817)" fill="#fff"/>
    <path id="Trazado_240525" data-name="Trazado 240525" d="M820.282,252.51a3.171,3.171,0,0,1-1.453-.262,2,2,0,0,1-.819-1.092l-.48-1.245q-.853.721-1.638,1.267a10.382,10.382,0,0,1-1.628.928,8.041,8.041,0,0,1-1.791.568,11.043,11.043,0,0,1-2.108.186,9.243,9.243,0,0,1-2.818-.4,5.874,5.874,0,0,1-2.152-1.19,5.232,5.232,0,0,1-1.365-1.955,7.048,7.048,0,0,1-.481-2.7,5.659,5.659,0,0,1,.612-2.469,6.09,6.09,0,0,1,2.119-2.3,13.473,13.473,0,0,1,4.063-1.737,27.271,27.271,0,0,1,6.444-.787v-.961a4.154,4.154,0,0,0-.819-2.873,3.014,3.014,0,0,0-2.326-.885,6.168,6.168,0,0,0-1.966.262,8.779,8.779,0,0,0-1.365.59q-.6.327-1.169.59a3.209,3.209,0,0,1-1.354.262,1.95,1.95,0,0,1-1.18-.349,3.04,3.04,0,0,1-.787-.83L804.6,233a13.769,13.769,0,0,1,4.555-2.7,15.964,15.964,0,0,1,5.363-.885,9.813,9.813,0,0,1,3.7.666,7.97,7.97,0,0,1,2.8,1.857,8.114,8.114,0,0,1,1.759,2.829,10.174,10.174,0,0,1,.611,3.583V252.51Zm-7.777-4.129a5.371,5.371,0,0,0,2.294-.459,6.982,6.982,0,0,0,1.988-1.485v-3.146a22.559,22.559,0,0,0-3.342.349,8.12,8.12,0,0,0-2.075.655,2.511,2.511,0,0,0-1.059.9,2.119,2.119,0,0,0-.295,1.092,1.9,1.9,0,0,0,.633,1.628,3.091,3.091,0,0,0,1.857.469" transform="translate(281.411 9738.019)" fill="#fff"/>
    <path id="Trazado_240526" data-name="Trazado 240526" d="M887.634,252.51a3.171,3.171,0,0,1-1.453-.262,2,2,0,0,1-.819-1.092l-.481-1.245q-.853.721-1.639,1.267a10.368,10.368,0,0,1-1.627.928,8.044,8.044,0,0,1-1.791.568,11.046,11.046,0,0,1-2.108.186,9.244,9.244,0,0,1-2.818-.4,5.874,5.874,0,0,1-2.152-1.19,5.232,5.232,0,0,1-1.365-1.955,7.05,7.05,0,0,1-.481-2.7,5.659,5.659,0,0,1,.612-2.469,6.09,6.09,0,0,1,2.119-2.3,13.468,13.468,0,0,1,4.063-1.737,27.269,27.269,0,0,1,6.444-.787v-.961a4.156,4.156,0,0,0-.819-2.873,3.015,3.015,0,0,0-2.327-.885,6.169,6.169,0,0,0-1.966.262,8.781,8.781,0,0,0-1.365.59q-.6.327-1.169.59a3.21,3.21,0,0,1-1.354.262,1.949,1.949,0,0,1-1.179-.349,3.035,3.035,0,0,1-.787-.83L871.949,233a13.77,13.77,0,0,1,4.555-2.7,15.965,15.965,0,0,1,5.363-.885,9.812,9.812,0,0,1,3.7.666,7.968,7.968,0,0,1,2.8,1.857,8.117,8.117,0,0,1,1.759,2.829,10.173,10.173,0,0,1,.611,3.583V252.51Zm-7.777-4.129a5.371,5.371,0,0,0,2.294-.459,6.98,6.98,0,0,0,1.988-1.485v-3.146a22.556,22.556,0,0,0-3.343.349,8.121,8.121,0,0,0-2.075.655,2.512,2.512,0,0,0-1.059.9,2.12,2.12,0,0,0-.3,1.092,1.9,1.9,0,0,0,.633,1.628,3.092,3.092,0,0,0,1.857.469" transform="translate(237.106 9738.019)" fill="#fff"/>
    <path id="Trazado_240527" data-name="Trazado 240527" d="M957.158,209.677a2.769,2.769,0,0,1-.688.787,1.54,1.54,0,0,1-.928.262,2.266,2.266,0,0,1-1.082-.317q-.579-.316-1.311-.71a10.935,10.935,0,0,0-1.671-.71,6.7,6.7,0,0,0-2.141-.317,4.605,4.605,0,0,0-3.091.885,3.009,3.009,0,0,0-1.016,2.392,2.2,2.2,0,0,0,.611,1.595,5.268,5.268,0,0,0,1.605,1.092,17.118,17.118,0,0,0,2.272.841q1.278.382,2.61.852a23.516,23.516,0,0,1,2.61,1.1,8.714,8.714,0,0,1,2.272,1.616,7.556,7.556,0,0,1,1.606,2.392,8.519,8.519,0,0,1,.611,3.4,11.069,11.069,0,0,1-.765,4.129,9.667,9.667,0,0,1-2.218,3.354,10.294,10.294,0,0,1-3.582,2.25,13.407,13.407,0,0,1-4.839.819,15.477,15.477,0,0,1-3.025-.306,17.945,17.945,0,0,1-2.982-.863,17.218,17.218,0,0,1-2.709-1.321,11.5,11.5,0,0,1-2.207-1.7l2.185-3.451a2.183,2.183,0,0,1,.688-.623,1.8,1.8,0,0,1,.928-.251,2.492,2.492,0,0,1,1.322.415q.666.416,1.507.917a12.166,12.166,0,0,0,1.933.918,7.245,7.245,0,0,0,2.578.415,4.907,4.907,0,0,0,3.124-.885,3.368,3.368,0,0,0,1.114-2.807,2.654,2.654,0,0,0-.611-1.813,4.731,4.731,0,0,0-1.606-1.158,14.85,14.85,0,0,0-2.261-.808q-1.267-.35-2.6-.775a19.139,19.139,0,0,1-2.6-1.049,8.2,8.2,0,0,1-2.261-1.638,7.654,7.654,0,0,1-1.606-2.534,10.061,10.061,0,0,1-.611-3.746,8.888,8.888,0,0,1,.721-3.5,9.018,9.018,0,0,1,2.119-3.036,10.414,10.414,0,0,1,3.43-2.13,12.657,12.657,0,0,1,4.653-.8,17.451,17.451,0,0,1,2.851.229,15.015,15.015,0,0,1,2.632.677,14.511,14.511,0,0,1,2.327,1.07,10.715,10.715,0,0,1,1.933,1.409Z" transform="translate(193.556 9755.489)" fill="#fff"/>
    <path id="Trazado_240528" data-name="Trazado 240528" d="M766.9,1094.947H512.654a3.08,3.08,0,0,1-3.08-3.079V921.7a3.08,3.08,0,0,1,3.08-3.08H766.9a3.08,3.08,0,0,1,3.08,3.08v170.169a3.08,3.08,0,0,1-3.08,3.079" transform="translate(474.793 9284.65)" fill="#3c89ff"/>
    <path id="Trazado_240529" data-name="Trazado 240529" d="M769.983,1056.164H509.574V898.531a3.08,3.08,0,0,1,3.08-3.08H766.9a3.08,3.08,0,0,1,3.08,3.08Z" transform="translate(474.793 9299.891)"/>
    <path id="Trazado_241286" data-name="Trazado 241286" d="M0,0H243.112V142.312H0Z" transform="translate(993.016 10203.894)" fill="#fff"/>
    <path id="Trazado_241287" data-name="Trazado 241287" d="M0,0H58.616V31.71H0Z" transform="translate(1085.263 10379.598)" fill="#3c89ff"/>
    <path id="Trazado_241288" data-name="Trazado 241288" d="M0,0H103.779V8.648H0Z" transform="translate(1062.682 10411.308)" fill="#2264c4"/>
    <path id="Trazado_240530" data-name="Trazado 240530" d="M884.99,1387.5a5.525,5.525,0,1,1-5.525-5.525,5.525,5.525,0,0,1,5.525,5.525" transform="translate(235.106 8979.847)" fill="#fff"/>
    <path id="Trazado_240531" data-name="Trazado 240531" d="M863.053,1447.378l-58.616,8.648v-22.1h58.616Z" transform="translate(280.827 8945.672)" fill="#2264c4"/>
    <path id="Trazado_240532" data-name="Trazado 240532" d="M560.517,942.833a3.28,3.28,0,1,1-3.28-3.281,3.28,3.28,0,0,1,3.28,3.281" transform="translate(445.598 9270.88)" fill="#ff4731"/>
    <path id="Trazado_240533" data-name="Trazado 240533" d="M594.952,942.833a3.28,3.28,0,1,1-3.28-3.281,3.28,3.28,0,0,1,3.28,3.281" transform="translate(422.946 9270.88)" fill="#ffc861"/>
    <path id="Trazado_240534" data-name="Trazado 240534" d="M629.387,942.833a3.28,3.28,0,1,1-3.28-3.281,3.28,3.28,0,0,1,3.28,3.281" transform="translate(400.294 9270.88)" fill="#00b25e"/>
    <path id="Trazado_240535" data-name="Trazado 240535" d="M1220.288,1075.049h-53.152a6.843,6.843,0,0,1-6.844-6.844V966.236a6.844,6.844,0,0,1,6.844-6.844h53.152a6.843,6.843,0,0,1,6.844,6.844v101.97a6.843,6.843,0,0,1-6.844,6.844" transform="translate(46.739 9257.829)"/>
    <path id="Trazado_240536" data-name="Trazado 240536" d="M1224.892,966.392h-4.977a3.193,3.193,0,0,0-3.193,3.193,4.106,4.106,0,0,1-4.106,4.106h-28.6a4.106,4.106,0,0,1-4.106-4.106,3.193,3.193,0,0,0-3.193-3.193h-4.977a4.448,4.448,0,0,0-4.448,4.448v101.97a4.448,4.448,0,0,0,4.448,4.448h53.152a4.448,4.448,0,0,0,4.448-4.448V970.84a4.448,4.448,0,0,0-4.448-4.448" transform="translate(42.135 9253.224)" fill="#fff"/>
    <path id="Trazado_240537" data-name="Trazado 240537" d="M1256.393,971.309h-13.568a1.112,1.112,0,0,0,0,2.224h13.568a1.112,1.112,0,1,0,0-2.224" transform="translate(-6.822 9249.989)" fill="#353535"/>
    <path id="Trazado_240538" data-name="Trazado 240538" d="M1229.164,971.309a1.112,1.112,0,1,0,1.112,1.112,1.112,1.112,0,0,0-1.112-1.112" transform="translate(2.165 9249.989)" fill="#353535"/>
    <path id="Trazado_241289" data-name="Trazado 241289" d="M0,0H13.345V7.87H0Z" transform="translate(1233.983 10209.351)" fill="#fff"/>
    <path id="Trazado_241290" data-name="Trazado 241290" d="M0,0H13.345V7.87H0Z" transform="translate(1233.983 10332.878)" fill="#fff"/>
    <path id="Trazado_240539" data-name="Trazado 240539" d="M889.14,622.9h-2.053v-2.738h2.053Zm0-8.212h-2.053v-2.738h2.053Zm0-8.212h-2.053v-2.737h2.053Zm0-8.212h-2.053v-2.737h2.053Zm0-8.212h-2.053v-2.737h2.053Zm0-8.212h-2.053V579.1h2.053Zm0-8.212h-2.053v-2.737h2.053Zm0-8.213h-2.053v-2.737h2.053Zm0-8.212h-2.053v-2.737h2.053Zm0-8.212h-2.053v-2.737h2.053Zm0-8.212h-2.053v-2.737h2.053Zm0-8.212h-2.053v-2.737h2.053Zm0-8.212h-2.053V521.61h2.053Zm0-8.212h-2.053V513.4h2.053Zm0-8.212h-2.053v-2.737h2.053Zm0-8.212h-2.053v-2.737h2.053Z" transform="translate(226.458 9562.017)" fill="#3c89ff"/>
    <path id="Trazado_240540" data-name="Trazado 240540" d="M1222.8,597.125h-2.053v-.9c0-.6-.012-1.2-.036-1.791l2.052-.083c.025.62.037,1.25.037,1.874Zm-2.631-8.011c-.144-.875-.317-1.758-.515-2.623l2-.457c.208.906.389,1.83.54,2.747Zm-2.026-7.747c-.3-.832-.635-1.666-.989-2.478l1.882-.82c.371.851.719,1.725,1.036,2.6Zm-3.419-7.233c-.452-.764-.933-1.524-1.43-2.257l1.7-1.151c.52.767,1.023,1.562,1.5,2.362Zm-4.692-6.488c-.583-.667-1.2-1.327-1.819-1.958l1.46-1.443c.654.661,1.294,1.351,1.9,2.051Zm-5.8-5.525c-.7-.552-1.42-1.088-2.148-1.595l1.173-1.685c.762.531,1.519,1.092,2.249,1.67Zm-6.715-4.373c-.786-.414-1.595-.809-2.4-1.173l.843-1.872c.848.382,1.7.8,2.519,1.229Zm-7.406-3.062c-.848-.262-1.715-.5-2.577-.708l.482-2c.9.218,1.812.468,2.7.741Zm-7.838-1.64c-.879-.1-1.776-.175-2.664-.221l.107-2.05c.93.049,1.868.127,2.789.232Zm-8.083-.282h-2.737V550.71h2.737Zm-8.213,0h-2.737V550.71h2.737Zm-8.212,0h-2.737V550.71h2.737Zm-8.212,0h-2.737V550.71h2.737Zm-8.212,0h-2.737V550.71h2.737Zm-8.212,0h-2.737V550.71h2.737Zm-8.212,0h-2.737V550.71h2.737Zm-8.212,0h-2.737V550.71h2.737Zm-8.212,0h-2.738V550.71h2.738Zm-8.213,0h-2.737V550.71h2.737Zm-8.288-.141c-.928-.073-1.865-.175-2.782-.3l.285-2.033c.877.123,1.771.221,2.657.29Zm-8.266-1.423c-.9-.241-1.8-.514-2.68-.812l.656-1.946c.842.284,1.7.544,2.557.775Zm-7.863-2.925c-.836-.4-1.67-.837-2.48-1.291l1-1.791c.774.433,1.57.848,2.369,1.233Zm-7.183-4.32c-.748-.549-1.489-1.129-2.2-1.725l1.315-1.578c.682.569,1.39,1.123,2.1,1.647Zm-6.275-5.563c-.636-.677-1.259-1.384-1.853-2.1l1.58-1.311c.567.684,1.162,1.358,1.77,2Zm-5.156-6.618c-.5-.784-.986-1.593-1.438-2.4l1.794-1c.432.775.894,1.548,1.373,2.3Zm-3.856-7.455c-.349-.862-.676-1.748-.971-2.631l1.947-.651c.282.844.594,1.688.927,2.512Zm-2.414-8.043c-.183-.909-.34-1.838-.467-2.76l2.034-.28c.121.881.271,1.767.446,2.635Zm-.89-8.339q-.005-.342-.005-.685v-2.068h2.053v2.068q0,.327,0,.654Zm2.048-8.227h-2.053v-2.737h2.053Z" transform="translate(119.234 9562.017)" fill="#3c89ff"/>
    <path id="Trazado_240541" data-name="Trazado 240541" d="M463.435,1073.814a46.575,46.575,0,1,1,4.25-65.7,46.56,46.56,0,0,1-4.25,65.7" transform="translate(555.993 9236.196)" fill="#fff"/>
    <path id="Trazado_240542" data-name="Trazado 240542" d="M485.959,1052.689a37.061,37.061,0,0,0-.406-4.465l-7.78-1.289-2.637-7.36,5.184-5.943a39.242,39.242,0,0,0-5.557-7.19l-7.053,3.541-6.467-4.4.7-7.866a38.89,38.89,0,0,0-8.462-2.491l-3.664,7-7.821.183-4.017-6.806a39.117,39.117,0,0,0-8.576,3.03l1.152,7.812-6.216,4.754-7.243-3.127a39.044,39.044,0,0,0-5.147,7.487l5.512,5.635-2.22,7.495-7.7,1.734a39.67,39.67,0,0,0-.148,4.746,42.4,42.4,0,0,0,.386,4.332l7.783,1.311,2.613,7.368-5.219,5.929a39.787,39.787,0,0,0,5.555,7.224l7.067-3.519,6.454,4.416-.732,7.868a39.421,39.421,0,0,0,8.722,2.571l3.643-7.016,7.82-.216,4.03,6.8a39.541,39.541,0,0,0,8.568-3.064l-1.175-7.807,6.194-4.782,7.25,3.107a39.1,39.1,0,0,0,5.131-7.5l-5.544-5.613,2.193-7.517,7.7-1.747a39.813,39.813,0,0,0,.122-4.621m-28.629,13.37a16.138,16.138,0,1,1,1.469-22.8,16.141,16.141,0,0,1-1.469,22.8" transform="translate(542.02 9221.099)" fill="#3c89ff"/>
    <path id="Trazado_240543" data-name="Trazado 240543" d="M494.877,1068.062a23.338,23.338,0,1,0-2.13,32.938,23.367,23.367,0,0,0,2.13-32.938m-3.641,31.218a21.062,21.062,0,1,1,1.921-29.709,21.055,21.055,0,0,1-1.921,29.709" transform="translate(511.356 9191.568)" fill="#fff"/>
    <path id="Trazado_240544" data-name="Trazado 240544" d="M625.947,1213.742a18.1,18.1,0,0,0-.2-2.177l-3.794-.628-1.286-3.589,2.528-2.9a19.144,19.144,0,0,0-2.71-3.506l-3.439,1.727-3.153-2.144.341-3.836a18.986,18.986,0,0,0-4.126-1.215l-1.787,3.413-3.814.089-1.959-3.319a19.072,19.072,0,0,0-4.181,1.478l.562,3.809-3.031,2.318-3.532-1.525a19.051,19.051,0,0,0-2.51,3.651l2.688,2.748-1.083,3.655-3.754.845a19.408,19.408,0,0,0-.072,2.314,20.773,20.773,0,0,0,.188,2.113l3.8.64,1.274,3.593-2.544,2.891a19.407,19.407,0,0,0,2.709,3.522L596.5,1226l3.147,2.153-.357,3.837a19.213,19.213,0,0,0,4.253,1.254l1.777-3.421,3.813-.105,1.965,3.314a19.272,19.272,0,0,0,4.178-1.494l-.573-3.807,3.02-2.332,3.535,1.515a19.049,19.049,0,0,0,2.5-3.659l-2.7-2.737,1.069-3.665,3.756-.852a19.469,19.469,0,0,0,.06-2.254m-13.96,6.52a7.869,7.869,0,1,1,.717-11.118,7.871,7.871,0,0,1-.717,11.118" transform="translate(423.448 9102.529)" fill="#3c89ff"/>
    <path id="Trazado_240545" data-name="Trazado 240545" d="M630.3,1221.238a11.38,11.38,0,1,0-1.039,16.061,11.394,11.394,0,0,0,1.039-16.061m-1.775,15.223a10.27,10.27,0,1,1,.937-14.487,10.267,10.267,0,0,1-.937,14.487" transform="translate(408.494 9088.129)" fill="#fff"/>
    <path id="Trazado_240546" data-name="Trazado 240546" d="M122.675,1351.868a11.976,11.976,0,0,0,21.377,6.539,1.414,1.414,0,0,1,1.116-.538,1.431,1.431,0,0,1,1.431,1.431v23.678H82.7v-63.9h23.675a1.431,1.431,0,0,0,1.431-1.431,1.415,1.415,0,0,0-.538-1.116,11.976,11.976,0,1,1,14.772-.006,1.429,1.429,0,0,0,.885,2.553H146.6v23.675a1.429,1.429,0,0,1-2.553.884,11.976,11.976,0,0,0-21.371,8.233" transform="translate(755.6 9036.979)" fill="#3c89ff"/>
    <path id="Trazado_240547" data-name="Trazado 240547" d="M113.807,1218.351a11.976,11.976,0,0,0-6.539,21.377,1.415,1.415,0,0,1,.538,1.115,1.431,1.431,0,0,1-1.431,1.431H82.7v-63.9h63.9v23.675a1.431,1.431,0,0,0,1.431,1.431,1.415,1.415,0,0,0,1.116-.538,11.976,11.976,0,1,1,.007,14.772,1.429,1.429,0,0,0-2.553.884v23.678H122.925a1.429,1.429,0,0,1-.885-2.553,11.976,11.976,0,0,0-8.233-21.371" transform="translate(755.6 9113.779)" fill="#ffc861"/>
    <path id="Trazado_240548" data-name="Trazado 240548" d="M1491.308,1365.374H1409.9a6.159,6.159,0,0,1-6.159-6.159v-21.239a6.159,6.159,0,0,1,6.159-6.159h81.409a6.159,6.159,0,0,1,6.159,6.159v21.239a6.159,6.159,0,0,1-6.159,6.159" transform="translate(-113.405 9012.841)" fill="#ffc861"/>
    <path id="Trazado_240549" data-name="Trazado 240549" d="M1448.475,1365.458a7.714,7.714,0,1,0-7.714,7.714,7.714,7.714,0,0,0,7.714-7.714" transform="translate(-132.684 8995.785)" fill="#fff"/>
    <path id="Trazado_240550" data-name="Trazado 240550" d="M1583.019,1373.172h-.7a2.737,2.737,0,0,1-2.738-2.737v-9.954a2.737,2.737,0,0,1,2.738-2.737h.7a2.738,2.738,0,0,1,2.737,2.737v9.954a2.738,2.738,0,0,1-2.737,2.737" transform="translate(-229.08 8995.786)" fill="#3c89ff"/>
    <path id="Trazado_240551" data-name="Trazado 240551" d="M1629.234,1373.172h-.7a2.738,2.738,0,0,1-2.737-2.737v-9.954a2.738,2.738,0,0,1,2.737-2.737h.7a2.738,2.738,0,0,1,2.738,2.737v9.954a2.738,2.738,0,0,1-2.738,2.737" transform="translate(-259.481 8995.786)" fill="#3c89ff"/>
    <path id="Trazado_240552" data-name="Trazado 240552" d="M1491.308,1243.635H1409.9a6.159,6.159,0,0,1-6.159-6.159v-21.239a6.159,6.159,0,0,1,6.159-6.159h81.409a6.159,6.159,0,0,1,6.159,6.159v21.239a6.159,6.159,0,0,1-6.159,6.159" transform="translate(-113.405 9092.923)" fill="#ffc861"/>
    <path id="Trazado_240553" data-name="Trazado 240553" d="M1448.475,1243.719a7.714,7.714,0,1,0-7.714,7.714,7.714,7.714,0,0,0,7.714-7.714" transform="translate(-132.684 9075.868)" fill="#fff"/>
    <path id="Trazado_240554" data-name="Trazado 240554" d="M1583.019,1251.433h-.7a2.738,2.738,0,0,1-2.738-2.738v-9.954a2.737,2.737,0,0,1,2.738-2.737h.7a2.738,2.738,0,0,1,2.737,2.737v9.954a2.738,2.738,0,0,1-2.737,2.738" transform="translate(-229.08 9075.868)" fill="#3c89ff"/>
    <path id="Trazado_240555" data-name="Trazado 240555" d="M1629.234,1251.433h-.7a2.738,2.738,0,0,1-2.737-2.738v-9.954a2.738,2.738,0,0,1,2.737-2.737h.7a2.738,2.738,0,0,1,2.738,2.737v9.954a2.738,2.738,0,0,1-2.738,2.738" transform="translate(-259.481 9075.868)" fill="#3c89ff"/>
    <path id="Trazado_240556" data-name="Trazado 240556" d="M1491.308,1487.113H1409.9a6.159,6.159,0,0,1-6.159-6.159v-21.239a6.159,6.159,0,0,1,6.159-6.159h81.409a6.159,6.159,0,0,1,6.159,6.159v21.239a6.159,6.159,0,0,1-6.159,6.159" transform="translate(-113.405 8932.759)" fill="#ffc861"/>
    <path id="Trazado_240557" data-name="Trazado 240557" d="M1448.475,1487.2a7.714,7.714,0,1,0-7.714,7.714,7.714,7.714,0,0,0,7.714-7.714" transform="translate(-132.684 8915.703)" fill="#fff"/>
    <path id="Trazado_240558" data-name="Trazado 240558" d="M1583.019,1494.911h-.7a2.737,2.737,0,0,1-2.738-2.737v-9.954a2.737,2.737,0,0,1,2.738-2.737h.7a2.737,2.737,0,0,1,2.737,2.737v9.954a2.738,2.738,0,0,1-2.737,2.737" transform="translate(-229.08 8915.704)" fill="#3c89ff"/>
    <path id="Trazado_240559" data-name="Trazado 240559" d="M1629.234,1494.911h-.7a2.738,2.738,0,0,1-2.737-2.737v-9.954a2.737,2.737,0,0,1,2.737-2.737h.7a2.737,2.737,0,0,1,2.738,2.737v9.954a2.738,2.738,0,0,1-2.738,2.737" transform="translate(-259.481 8915.704)" fill="#3c89ff"/>
    <path id="Trazado_241291" data-name="Trazado 241291" d="M0,0H609.143V.684H0Z" transform="translate(810 10419.613)"/>
    <path id="Trazado_240560" data-name="Trazado 240560" d="M865.233,1052.945H811.344v52.38c5.446,5.427,17.167,5.427,26.944,5.427s19.772-.938,26.944-5.427v-52.38" transform="translate(276.283 9196.288)" fill="#fff"/>
    <path id="Trazado_240561" data-name="Trazado 240561" d="M865.233,1040.329c0-3-12.063-5.427-26.944-5.427s-26.944,2.43-26.944,5.427,12.064,5.427,26.944,5.427,26.944-2.43,26.944-5.427" transform="translate(276.283 9208.157)" fill="#3c89ff"/>
    <path id="Trazado_240562" data-name="Trazado 240562" d="M836.315,1044.809c-9.674,0-27.971-1.349-27.971-6.453s18.3-6.454,27.971-6.454,27.971,1.349,27.971,6.454-18.3,6.453-27.971,6.453m0-10.854a100.369,100.369,0,0,0-18.85,1.569c-5.868,1.182-7.068,2.534-7.068,2.831s1.2,1.649,7.068,2.831a114,114,0,0,0,37.7,0c5.869-1.182,7.068-2.534,7.068-2.831s-1.2-1.649-7.068-2.831a100.368,100.368,0,0,0-18.85-1.569" transform="translate(278.256 9210.131)" fill="#3c89ff"/>
    <path id="Trazado_240563" data-name="Trazado 240563" d="M836.315,1074.741c-9.674,0-27.971-1.349-27.971-6.453v-17.8H810.4v17.8c0,.3,1.2,1.649,7.068,2.831a114.007,114.007,0,0,0,37.7,0c5.869-1.182,7.068-2.534,7.068-2.831v-17.8h2.053v17.8c0,5.1-18.3,6.453-27.971,6.453" transform="translate(278.256 9197.907)" fill="#3c89ff"/>
    <path id="Trazado_240564" data-name="Trazado 240564" d="M836.315,1125.938c-9.674,0-27.971-1.349-27.971-6.454v-17.8H810.4v17.8c0,.3,1.2,1.649,7.068,2.831a113.972,113.972,0,0,0,37.7,0c5.869-1.182,7.068-2.533,7.068-2.831v-17.8h2.053v17.8c0,5.1-18.3,6.454-27.971,6.454" transform="translate(278.256 9164.229)" fill="#3c89ff"/>
    <path id="Trazado_240565" data-name="Trazado 240565" d="M836.315,1178.248c-9.674,0-27.971-1.349-27.971-6.454v-17.8H810.4v17.8c0,.3,1.2,1.649,7.068,2.831a114.007,114.007,0,0,0,37.7,0c5.869-1.182,7.068-2.534,7.068-2.831v-17.8h2.053v17.8c0,5.1-18.3,6.454-27.971,6.454" transform="translate(278.256 9129.818)" fill="#3c89ff"/>
    <path id="Trazado_240566" data-name="Trazado 240566" d="M882.637,1090.314h-6.379a2.345,2.345,0,0,1,0-4.691h6.379a2.345,2.345,0,0,1,0,4.691" transform="translate(235.125 9174.792)" fill="#ffc861"/>
    <path id="Trazado_240567" data-name="Trazado 240567" d="M882.637,1141.856h-6.379a2.345,2.345,0,1,1,0-4.691h6.379a2.345,2.345,0,0,1,0,4.691" transform="translate(235.125 9140.887)" fill="#ffc861"/>
    <path id="Trazado_240568" data-name="Trazado 240568" d="M882.637,1193.4h-6.379a2.345,2.345,0,1,1,0-4.691h6.379a2.345,2.345,0,0,1,0,4.691" transform="translate(235.125 9106.98)" fill="#ffc861"/>
    <path id="Trazado_240569" data-name="Trazado 240569" d="M1191.055,1047.319H1178.2a1.027,1.027,0,0,1,0-2.053h12.854a1.027,1.027,0,1,1,0,2.053" transform="translate(35.633 9201.34)" fill="#3c89ff"/>
    <path id="Trazado_240570" data-name="Trazado 240570" d="M1199.258,1065.858H1178.2a1.027,1.027,0,0,1,0-2.053h21.057a1.027,1.027,0,0,1,0,2.053" transform="translate(35.633 9189.145)" fill="#3c89ff"/>
    <path id="Trazado_240571" data-name="Trazado 240571" d="M1199.258,1084.4H1178.2a1.027,1.027,0,0,1,0-2.053h21.057a1.027,1.027,0,1,1,0,2.053" transform="translate(35.633 9176.949)" fill="#3c89ff"/>
    <path id="Trazado_240572" data-name="Trazado 240572" d="M1497.163,905.072h-10.768a1.027,1.027,0,0,1,0-2.053h10.1l14.552-33.129h-63.2l-15.171,33.129h24.746a1.027,1.027,0,1,1,0,2.053h-26.346a1.027,1.027,0,0,1-.933-1.454l16.111-35.182a1.027,1.027,0,0,1,.933-.6h65.432a1.027,1.027,0,0,1,.94,1.439L1498.1,904.459a1.027,1.027,0,0,1-.94.614" transform="translate(-130.711 9318.056)" fill="#3c89ff"/>
    <path id="Trazado_240573" data-name="Trazado 240573" d="M1431.073,872.834a1.026,1.026,0,0,1-1.026-1.027V819.856a1.026,1.026,0,0,1,1.026-1.026h22.359a1.026,1.026,0,0,1,.929.589l2.353,5h41.107a1.027,1.027,0,0,1,1.026,1.027v5.3a1.026,1.026,0,1,1-2.053,0v-4.275h-40.732a1.027,1.027,0,0,1-.929-.589l-2.353-5H1432.1v50.925a1.027,1.027,0,0,1-1.027,1.027" transform="translate(-130.711 9350.293)" fill="#3c89ff"/>
    <path id="Trazado_240574" data-name="Trazado 240574" d="M1537.4,948.326V926.945h4.643l-11.015-15.454-11.015,15.454h4.643v21.381l6.372-3.609Z" transform="translate(-189.89 9289.339)" fill="#ffc861"/>
    <path id="Trazado_240575" data-name="Trazado 240575" d="M1522.679,947.379a1.026,1.026,0,0,1-1.026-1.026V926h-3.616a1.026,1.026,0,0,1-.836-1.622l11.015-15.454a1.026,1.026,0,0,1,1.672,0l11.015,15.454a1.026,1.026,0,0,1-.836,1.622h-3.617v20.354a1.027,1.027,0,0,1-1.532.893l-5.866-3.323-5.865,3.323a1.027,1.027,0,0,1-.506.133m-2.651-23.434h2.651a1.027,1.027,0,0,1,1.027,1.026v19.62l4.839-2.741a1.025,1.025,0,0,1,1.011,0l4.839,2.741v-19.62a1.027,1.027,0,0,1,1.027-1.026h2.652l-9.023-12.659Z" transform="translate(-187.917 9291.313)" fill="#ffc861"/>
    <path id="Trazado_240576" data-name="Trazado 240576" d="M1550.892,1095.145h-2.053v-1.138h2.053Zm0-6.613h-2.053v-2.737h2.053Zm0-8.213h-2.053v-2.737h2.053Zm0-8.212h-2.053v-2.737h2.053Zm0-8.212h-2.053v-2.737h2.053Zm0-8.212h-2.053v-2.737h2.053Z" transform="translate(-208.854 9196.288)" fill="#3c89ff"/>
    <path id="Trazado_240577" data-name="Trazado 240577" d="M175.009,718.466h-2.053v-2.737h2.053Zm0-8.212h-2.053v-2.737h2.053Zm0-8.212h-2.053V699.3h2.053Zm0-8.212h-2.053v-2.737h2.053Zm0-8.212h-2.053v-2.737h2.053Zm0-8.212h-2.053v-2.738h2.053Zm0-8.212h-2.053v-2.737h2.053Zm0-8.212h-2.053v-2.737h2.053Zm0-8.212h-2.053v-2.737h2.053Zm.185-8.111-2.045-.188c.085-.926.2-1.86.342-2.778l2.029.313c-.136.877-.245,1.769-.326,2.653m1.467-7.873-1.975-.561c.254-.893.54-1.791.849-2.668l1.936.683c-.295.837-.568,1.694-.81,2.547m2.9-7.468-1.837-.917c.415-.831.862-1.661,1.328-2.468l1.777,1.028c-.446.77-.872,1.563-1.268,2.356m4.224-6.81-1.638-1.238c.56-.741,1.151-1.475,1.756-2.181l1.559,1.336c-.578.674-1.143,1.375-1.678,2.083m5.4-5.921-1.384-1.516c.685-.626,1.4-1.239,2.124-1.823l1.289,1.6c-.692.557-1.374,1.143-2.028,1.74m6.385-4.833-1.083-1.744c.788-.49,1.6-.961,2.42-1.4l.975,1.807c-.781.421-1.558.872-2.311,1.339m7.158-3.578-.744-1.913c.868-.338,1.756-.652,2.64-.934l.624,1.956c-.844.269-1.691.568-2.52.891m7.7-2.2-.378-2.018c.913-.171,1.844-.316,2.766-.43l.253,2.038c-.88.109-1.769.247-2.641.41m107.447-.733h-.925v-2.053h.925c.588,0,1.183-.012,1.77-.035l.082,2.051c-.615.025-1.238.037-1.853.037m-6.4,0h-2.737v-2.053h2.737Zm-8.212,0H300.52v-2.053h2.737Zm-8.212,0h-2.737v-2.053h2.737Zm-8.212,0H284.1v-2.053h2.737Zm-8.212,0h-2.737v-2.053h2.737Zm-8.212,0h-2.737v-2.053h2.737Zm-8.212,0h-2.737v-2.053H262.2Zm-8.212,0h-2.737v-2.053h2.737Zm-8.212,0h-2.737v-2.053h2.737Zm-8.212,0h-2.737v-2.053h2.737Zm-8.213,0-2.737,0,0-2.053,2.737,0Zm-8.212-.006-2.637,0h-.1v-2.053h.1l2.638,0Zm104.156-.593-.333-2.026c.876-.144,1.758-.317,2.623-.514l.457,2c-.906.207-1.83.388-2.747.538m8.12-2.12-.7-1.93c.834-.3,1.671-.636,2.486-.992l.82,1.883c-.854.372-1.73.721-2.6,1.039M341,598.937l-1.045-1.768c.764-.452,1.525-.933,2.26-1.432l1.152,1.7c-.77.522-1.566,1.026-2.366,1.5m6.8-4.917-1.351-1.546c.669-.584,1.327-1.2,1.959-1.82l1.443,1.461c-.661.653-1.351,1.294-2.051,1.905m5.784-6.073-1.61-1.274c.551-.7,1.087-1.419,1.592-2.145l1.685,1.172c-.529.761-1.09,1.517-1.667,2.247m4.575-7.026-1.816-.957c.414-.785.808-1.592,1.171-2.4l1.872.843c-.381.845-.794,1.69-1.227,2.513m3.205-7.749-1.962-.605c.261-.847.5-1.714.709-2.577l2,.483c-.219.9-.468,1.812-.743,2.7m1.72-8.21-2.04-.233c.1-.88.176-1.777.223-2.664l2.05.108c-.049.929-.127,1.867-.233,2.789m.3-8.316h-2.053V553.91h2.053Zm0-8.212h-2.053V545.7h2.053Zm0-8.212h-2.053v-2.737h2.053Zm0-8.212h-2.053v-2.737h2.053Zm0-8.212h-2.053V521.06h2.053Zm0-8.212h-2.053v-2.737h2.053Zm0-8.212h-2.053v-2.737h2.053Zm0-8.212h-2.053V497.19h2.053Z" transform="translate(696.226 9561.874)" fill="#3c89ff"/>
    <path id="Trazado_240578" data-name="Trazado 240578" d="M1342.186,1038.8a14.57,14.57,0,1,1-14.57-14.57,14.57,14.57,0,0,1,14.57,14.57" transform="translate(-53.746 9215.18)" fill="#00b25e"/>
    <path id="Trazado_240579" data-name="Trazado 240579" d="M1339.29,1062.327h-.034a2.532,2.532,0,0,1-1.767-.8l-4-4.077a1.026,1.026,0,1,1,1.464-1.438l4.019,4.091a.509.509,0,0,0,.324.166.5.5,0,0,0,.314-.151l7.185-7.2a1.027,1.027,0,0,1,1.454,1.45l-7.171,7.187a2.527,2.527,0,0,1-1.752.771h-.031" transform="translate(-66.997 9196.503)" fill="#fff"/>
    <path id="Trazado_240580" data-name="Trazado 240580" d="M1143.06,1137.165h-63.32v38.823h42.516l7.026,7.026v-7.026h13.779Z" transform="translate(99.728 9140.887)" fill="#cde8f9"/>
    <path id="Trazado_240581" data-name="Trazado 240581" d="M1159.978,1174.39h-22.361a1.027,1.027,0,1,1,0-2.053h22.361a1.027,1.027,0,0,1,0,2.053" transform="translate(62.33 9117.75)" fill="#fff"/>
    <path id="Trazado_240582" data-name="Trazado 240582" d="M1152.279,1193.071h-39.052a1.026,1.026,0,1,1,0-2.053h39.052a1.026,1.026,0,1,1,0,2.053" transform="translate(78.374 9105.461)" fill="#fff"/>
    <path id="Trazado_240583" data-name="Trazado 240583" d="M1152.279,1211.752h-39.052a1.027,1.027,0,0,1,0-2.053h39.052a1.027,1.027,0,1,1,0,2.053" transform="translate(78.374 9093.172)" fill="#fff"/>
    <path id="Trazado_241292" data-name="Trazado 241292" d="M0,0H610V531.363H0Z" transform="translate(810 9888.936)" fill="none"/>
  </g>
</svg>
