<svg xmlns="http://www.w3.org/2000/svg" width="595.676" height="515.278" viewBox="0 0 595.676 515.278">
  <g id="Grupo_173272" data-name="Grupo 173272" transform="translate(-194.324 -9208.035)">
    <path id="Trazado_240584" data-name="Trazado 240584" d="M689.6,998.932H291.066c-5.4,0-9.785-4.646-9.785-10.376v-250.7c0-5.731,4.381-10.376,9.785-10.376H689.6c5.4,0,9.785,4.645,9.785,10.376v250.7c0,5.73-4.381,10.376-9.785,10.376" transform="translate(1.827 8724.047)" fill="#ebf2ff"/>
    <path id="Trazado_241268" data-name="Trazado 241268" d="M0,0H7.517V30.3H0Z" transform="translate(436.826 9339.384)" fill="#ffc861"/>
    <path id="Trazado_241269" data-name="Trazado 241269" d="M0,0H15.458V16.391H0Z" transform="translate(432.856 9339.384)" fill="#3c89ff"/>
    <path id="Trazado_241270" data-name="Trazado 241270" d="M0,0H7.517V30.3H0Z" transform="translate(488.404 9339.384)" fill="#ffc861"/>
    <path id="Trazado_241271" data-name="Trazado 241271" d="M0,0H15.458V16.391H0Z" transform="translate(484.433 9339.384)" fill="#3c89ff"/>
    <path id="Trazado_241272" data-name="Trazado 241272" d="M0,0H7.517V30.3H0Z" transform="translate(539.981 9339.384)" fill="#ffc861"/>
    <path id="Trazado_241273" data-name="Trazado 241273" d="M0,0H15.458V16.391H0Z" transform="translate(536.011 9339.384)" fill="#3c89ff"/>
    <path id="Trazado_240585" data-name="Trazado 240585" d="M788.637,84.845a18.878,18.878,0,0,0-5.808.914c2.428-22.034-17.173-40.938-37.615-36.369a65.243,65.243,0,0,0-10.4-23.953C707.128-15.146,645.909-5.157,630.381,41.073a39.766,39.766,0,0,0-37.833,7.5c-30.719,24.536-13.062,79.394,25.656,78.564H788.637a19.752,19.752,0,0,0,17.245-10.532c7.811-13.539-2.217-32.166-17.245-31.762" transform="translate(-200.482 9208.038)" fill="#3c89ff"/>
    <path id="Trazado_240586" data-name="Trazado 240586" d="M801.986,209.522a2.664,2.664,0,0,1-.635.769,1.361,1.361,0,0,1-.856.257,2.006,2.006,0,0,1-1-.31q-.534-.31-1.209-.694a9.792,9.792,0,0,0-1.542-.695,5.857,5.857,0,0,0-1.975-.31,4.083,4.083,0,0,0-2.852.866,3.029,3.029,0,0,0-.937,2.34,2.226,2.226,0,0,0,.564,1.56,4.857,4.857,0,0,0,1.481,1.069,15.3,15.3,0,0,0,2.1.822q1.179.375,2.408.833a21.039,21.039,0,0,1,2.408,1.079,8.063,8.063,0,0,1,2.1,1.581,7.418,7.418,0,0,1,1.481,2.34,8.765,8.765,0,0,1,.564,3.323,11.41,11.41,0,0,1-.705,4.039,9.274,9.274,0,0,1-5.35,5.481,11.735,11.735,0,0,1-4.464.8,13.544,13.544,0,0,1-2.791-.3,15.812,15.812,0,0,1-2.75-.844,15.538,15.538,0,0,1-2.5-1.293,10.7,10.7,0,0,1-2.035-1.667l2.015-3.376a2.067,2.067,0,0,1,.635-.609,1.586,1.586,0,0,1,.856-.246,2.206,2.206,0,0,1,1.219.406q.614.406,1.39.9a10.98,10.98,0,0,0,1.783.9,6.339,6.339,0,0,0,2.378.406,4.345,4.345,0,0,0,2.882-.866,3.4,3.4,0,0,0,1.028-2.746,2.7,2.7,0,0,0-.564-1.773,4.381,4.381,0,0,0-1.481-1.133,13.149,13.149,0,0,0-2.085-.791q-1.169-.341-2.4-.758a17.014,17.014,0,0,1-2.4-1.026,7.363,7.363,0,0,1-3.567-4.081,10.375,10.375,0,0,1-.564-3.665,9.148,9.148,0,0,1,.665-3.419,8.85,8.85,0,0,1,1.954-2.97,9.547,9.547,0,0,1,3.164-2.083,11.089,11.089,0,0,1,4.292-.78,15.2,15.2,0,0,1,2.63.224,13.2,13.2,0,0,1,2.428.662,13.039,13.039,0,0,1,2.146,1.047,9.956,9.956,0,0,1,1.783,1.378Z" transform="translate(-341.863 9073.078)" fill="#fff"/>
    <path id="Trazado_240587" data-name="Trazado 240587" d="M870.49,252a2.783,2.783,0,0,1-1.34-.256,1.949,1.949,0,0,1-.756-1.068l-.443-1.218q-.786.7-1.511,1.239a9.437,9.437,0,0,1-1.5.908,7.114,7.114,0,0,1-1.652.556,9.629,9.629,0,0,1-1.945.182,8.089,8.089,0,0,1-2.6-.4,5.344,5.344,0,0,1-1.985-1.165,5.13,5.13,0,0,1-1.26-1.913,7.267,7.267,0,0,1-.443-2.639,5.692,5.692,0,0,1,2.519-4.669,12.076,12.076,0,0,1,3.748-1.7,23.806,23.806,0,0,1,5.944-.77v-.94a4.235,4.235,0,0,0-.756-2.81,2.7,2.7,0,0,0-2.146-.865,5.383,5.383,0,0,0-1.814.256,7.882,7.882,0,0,0-1.259.577q-.554.32-1.078.577a2.813,2.813,0,0,1-1.249.256,1.726,1.726,0,0,1-1.088-.342,2.911,2.911,0,0,1-.726-.812l-1.128-2.073a12.567,12.567,0,0,1,4.2-2.639,13.971,13.971,0,0,1,4.948-.866,8.6,8.6,0,0,1,3.416.652,7.343,7.343,0,0,1,2.579,1.816,8.031,8.031,0,0,1,1.622,2.767,10.492,10.492,0,0,1,.564,3.5V252Zm-7.174-4.039a4.715,4.715,0,0,0,2.116-.449,6.477,6.477,0,0,0,1.834-1.453v-3.077a19.664,19.664,0,0,0-3.083.342,7.2,7.2,0,0,0-1.914.641,2.361,2.361,0,0,0-.977.876,2.17,2.17,0,0,0-.272,1.068,1.913,1.913,0,0,0,.584,1.592,2.73,2.73,0,0,0,1.713.459" transform="translate(-390.841 9055.41)" fill="#fff"/>
    <path id="Trazado_240588" data-name="Trazado 240588" d="M937.843,252a2.782,2.782,0,0,1-1.34-.256,1.948,1.948,0,0,1-.756-1.068l-.443-1.218q-.786.7-1.511,1.239a9.458,9.458,0,0,1-1.5.908,7.112,7.112,0,0,1-1.652.556,9.623,9.623,0,0,1-1.944.182,8.09,8.09,0,0,1-2.6-.4,5.346,5.346,0,0,1-1.985-1.165,5.131,5.131,0,0,1-1.259-1.913,7.261,7.261,0,0,1-.443-2.639,5.691,5.691,0,0,1,2.519-4.669,12.075,12.075,0,0,1,3.748-1.7,23.8,23.8,0,0,1,5.944-.77v-.94a4.235,4.235,0,0,0-.756-2.81,2.7,2.7,0,0,0-2.146-.865,5.382,5.382,0,0,0-1.814.256,7.876,7.876,0,0,0-1.259.577q-.554.32-1.078.577a2.814,2.814,0,0,1-1.249.256,1.726,1.726,0,0,1-1.088-.342,2.911,2.911,0,0,1-.726-.812l-1.128-2.073a12.566,12.566,0,0,1,4.2-2.639,13.968,13.968,0,0,1,4.947-.866,8.594,8.594,0,0,1,3.416.652,7.339,7.339,0,0,1,2.579,1.816,8.031,8.031,0,0,1,1.622,2.767,10.492,10.492,0,0,1,.564,3.5V252Zm-7.174-4.039a4.716,4.716,0,0,0,2.116-.449,6.481,6.481,0,0,0,1.833-1.453v-3.077a19.66,19.66,0,0,0-3.083.342,7.2,7.2,0,0,0-1.914.641,2.361,2.361,0,0,0-.977.876,2.171,2.171,0,0,0-.272,1.068,1.912,1.912,0,0,0,.584,1.592,2.729,2.729,0,0,0,1.713.459" transform="translate(-436.934 9055.41)" fill="#fff"/>
    <path id="Trazado_240589" data-name="Trazado 240589" d="M1007.108,209.522a2.665,2.665,0,0,1-.635.769,1.362,1.362,0,0,1-.856.257,2.007,2.007,0,0,1-1-.31q-.534-.31-1.209-.694a9.769,9.769,0,0,0-1.541-.695,5.857,5.857,0,0,0-1.975-.31,4.082,4.082,0,0,0-2.851.866,3.029,3.029,0,0,0-.937,2.34,2.227,2.227,0,0,0,.564,1.56,4.862,4.862,0,0,0,1.481,1.069,15.307,15.307,0,0,0,2.1.822q1.178.375,2.408.833a21.033,21.033,0,0,1,2.408,1.079,8.067,8.067,0,0,1,2.1,1.581,7.424,7.424,0,0,1,1.481,2.34,8.766,8.766,0,0,1,.564,3.323,11.41,11.41,0,0,1-.705,4.039,9.276,9.276,0,0,1-5.35,5.481,11.736,11.736,0,0,1-4.464.8,13.543,13.543,0,0,1-2.791-.3,15.812,15.812,0,0,1-2.75-.844,15.561,15.561,0,0,1-2.5-1.293,10.722,10.722,0,0,1-2.035-1.667l2.015-3.376a2.062,2.062,0,0,1,.635-.609,1.585,1.585,0,0,1,.856-.246,2.2,2.2,0,0,1,1.219.406q.615.406,1.391.9a10.978,10.978,0,0,0,1.783.9,6.338,6.338,0,0,0,2.378.406,4.344,4.344,0,0,0,2.882-.866,3.4,3.4,0,0,0,1.028-2.746,2.7,2.7,0,0,0-.564-1.773,4.382,4.382,0,0,0-1.481-1.133,13.154,13.154,0,0,0-2.085-.791q-1.169-.341-2.4-.758a17.026,17.026,0,0,1-2.4-1.026,7.363,7.363,0,0,1-3.567-4.081,10.375,10.375,0,0,1-.564-3.665,9.154,9.154,0,0,1,.665-3.419,8.855,8.855,0,0,1,1.955-2.97,9.547,9.547,0,0,1,3.164-2.083,11.088,11.088,0,0,1,4.292-.78,15.2,15.2,0,0,1,2.63.224,13.205,13.205,0,0,1,2.428.662,13.032,13.032,0,0,1,2.146,1.047,9.951,9.951,0,0,1,1.784,1.378Z" transform="translate(-482.24 9073.078)" fill="#fff"/>
    <path id="Trazado_240590" data-name="Trazado 240590" d="M1344.126,1248.866H1150.444V1118.379a2.93,2.93,0,0,1,2.84-3.012h188a2.931,2.931,0,0,1,2.841,3.012Z" transform="translate(-592.994 8465.992)"/>
    <path id="Trazado_241274" data-name="Trazado 241274" d="M0,0H180.818V118.986H0Z" transform="translate(563.883 9588.104)" fill="#ebf2ff"/>
    <path id="Trazado_240591" data-name="Trazado 240591" d="M1359.019,1168.738v89.029a3.256,3.256,0,0,1-3.156,3.347H1193.983a3.256,3.256,0,0,1-3.156-3.347v-98.9a3.256,3.256,0,0,1,3.156-3.347h23.623a3.256,3.256,0,0,1,3.157,3.347v3.179a3.256,3.256,0,0,0,3.156,3.347h131.944a3.256,3.256,0,0,1,3.156,3.347" transform="translate(-620.63 8439.28)" fill="#fff"/>
    <path id="Trazado_240592" data-name="Trazado 240592" d="M1306.105,1522.339H1112.423l-17.536-5.016v-3.1h228.755v3.1Z" transform="translate(-554.973 8200.639)" fill="#3c89ff"/>
    <path id="Trazado_240593" data-name="Trazado 240593" d="M1213.018,1166.03a2.014,2.014,0,1,1-2.01-2.132,2.074,2.074,0,0,1,2.01,2.132" transform="translate(-633.065 8433.705)" fill="#ff4731"/>
    <path id="Trazado_240594" data-name="Trazado 240594" d="M1235.9,1166.03a2.014,2.014,0,1,1-2.011-2.132,2.074,2.074,0,0,1,2.011,2.132" transform="translate(-648.723 8433.705)" fill="#ffc861"/>
    <path id="Trazado_240595" data-name="Trazado 240595" d="M1258.778,1166.03a2.014,2.014,0,1,1-2.011-2.132,2.074,2.074,0,0,1,2.011,2.132" transform="translate(-664.381 8433.705)" fill="#00b25e"/>
    <path id="Trazado_241275" data-name="Trazado 241275" d="M0,0H595.676V.669H0Z" transform="translate(194.324 9722.644)"/>
    <path id="Trazado_240596" data-name="Trazado 240596" d="M360.521,1077.706H125.993a2.93,2.93,0,0,1-2.841-3.012V908.24a2.93,2.93,0,0,1,2.841-3.012H360.521a2.931,2.931,0,0,1,2.841,3.012v166.453a2.931,2.931,0,0,1-2.841,3.012" transform="translate(110.044 8605.796)" fill="#3c89ff"/>
    <path id="Trazado_240597" data-name="Trazado 240597" d="M363.362,1039.264H123.152V885.073a2.93,2.93,0,0,1,2.841-3.012H360.521a2.931,2.931,0,0,1,2.841,3.012Z" transform="translate(110.044 8621.209)"/>
    <path id="Trazado_241276" data-name="Trazado 241276" d="M0,0H224.255V139.2H0Z" transform="translate(241.174 9511.635)" fill="#fff"/>
    <path id="Trazado_241277" data-name="Trazado 241277" d="M0,0H54.069V31.018H0Z" transform="translate(326.266 9683.501)" fill="#3c89ff"/>
    <path id="Trazado_241278" data-name="Trazado 241278" d="M0,0H95.729V8.459H0Z" transform="translate(305.436 9714.52)" fill="#2264c4"/>
    <path id="Trazado_240598" data-name="Trazado 240598" d="M497.711,1373.987a5.105,5.105,0,1,1-5.1-5.4,5.257,5.257,0,0,1,5.1,5.4" transform="translate(-139.313 8297.529)" fill="#fff"/>
    <path id="Trazado_240599" data-name="Trazado 240599" d="M472.084,1433.694l-54.069,8.459v-21.619h54.069Z" transform="translate(-91.748 8262.966)" fill="#2264c4"/>
    <path id="Trazado_240600" data-name="Trazado 240600" d="M173.586,929.371a3.031,3.031,0,1,1-3.026-3.209,3.121,3.121,0,0,1,3.026,3.209" transform="translate(79.671 8591.868)" fill="#ff4731"/>
    <path id="Trazado_240601" data-name="Trazado 240601" d="M208.021,929.371A3.031,3.031,0,1,1,205,926.162a3.121,3.121,0,0,1,3.026,3.209" transform="translate(56.105 8591.868)" fill="#ffc861"/>
    <path id="Trazado_240602" data-name="Trazado 240602" d="M242.456,929.371a3.031,3.031,0,1,1-3.026-3.209,3.121,3.121,0,0,1,3.026,3.209" transform="translate(32.539 8591.868)" fill="#00b25e"/>
    <path id="Trazado_240603" data-name="Trazado 240603" d="M1429.089,1237.7c0-14.12-10.794-25.566-24.109-25.566s-24.109,11.446-24.109,25.566,10.794,25.566,24.109,25.566,24.109-11.446,24.109-25.566" transform="translate(-750.688 8401.615)" fill="#3c89ff"/>
    <path id="Trazado_240604" data-name="Trazado 240604" d="M1545.369,1396.3c-8.124,0-14.733-7.008-14.733-15.623s6.609-15.623,14.733-15.623,14.733,7.009,14.733,15.623-6.609,15.623-14.733,15.623m0-29.238c-7.08,0-12.839,6.108-12.839,13.615s5.76,13.615,12.839,13.615,12.839-6.108,12.839-13.615-5.76-13.615-12.839-13.615" transform="translate(-853.182 8299.88)" fill="#3c89ff"/>
    <path id="Trazado_240605" data-name="Trazado 240605" d="M1569.946,1423.709a.977.977,0,0,1-.947-1v-.977a3.608,3.608,0,1,0-7.2,0v.977a.949.949,0,1,1-1.894,0v-.977a5.505,5.505,0,1,1,10.991,0v.977a.977.977,0,0,1-.947,1" transform="translate(-873.21 8266.05)" fill="#3c89ff"/>
    <path id="Trazado_240606" data-name="Trazado 240606" d="M1568.32,1393.021a4.406,4.406,0,1,1,4.148-4.4,4.283,4.283,0,0,1-4.148,4.4m0-6.788a2.394,2.394,0,1,0,2.254,2.39,2.328,2.328,0,0,0-2.254-2.39" transform="translate(-876.133 8287.123)" fill="#3c89ff"/>
    <path id="Trazado_240607" data-name="Trazado 240607" d="M1305.249,1396.3c-8.124,0-14.733-7.008-14.733-15.623s6.609-15.623,14.733-15.623,14.733,7.009,14.733,15.623-6.609,15.623-14.733,15.623m0-29.238c-7.08,0-12.839,6.108-12.839,13.615s5.76,13.615,12.839,13.615,12.839-6.108,12.839-13.615-5.76-13.615-12.839-13.615" transform="translate(-688.853 8299.88)" fill="#3c89ff"/>
    <path id="Trazado_240608" data-name="Trazado 240608" d="M1329.826,1423.709a.977.977,0,0,1-.947-1v-.977a3.608,3.608,0,1,0-7.2,0v.977a.949.949,0,1,1-1.894,0v-.977a5.5,5.5,0,1,1,10.991,0v.977a.977.977,0,0,1-.947,1" transform="translate(-708.882 8266.05)" fill="#3c89ff"/>
    <path id="Trazado_240609" data-name="Trazado 240609" d="M1328.2,1393.021a4.406,4.406,0,1,1,4.147-4.4,4.283,4.283,0,0,1-4.147,4.4m0-6.788a2.394,2.394,0,1,0,2.254,2.39,2.328,2.328,0,0,0-2.254-2.39" transform="translate(-711.805 8287.123)" fill="#3c89ff"/>
    <path id="Trazado_240610" data-name="Trazado 240610" d="M502.559,613.458h-1.894V610.78h1.894Zm0-8.033h-1.894v-2.678h1.894Zm.007-8.015-1.893-.036c.015-.91.058-1.83.125-2.734l1.888.159c-.065.864-.105,1.743-.12,2.612m.81-7.787-1.855-.4c.172-.89.373-1.787.6-2.665l1.828.524c-.214.838-.405,1.693-.569,2.544m2.148-7.495-1.753-.759c.323-.84.676-1.68,1.049-2.5l1.706.873c-.355.781-.692,1.583-1,2.384m3.413-6.94-1.591-1.089c.464-.762.957-1.52,1.465-2.253l1.526,1.19c-.485.7-.956,1.423-1.4,2.151m4.558-6.164-1.377-1.379c.588-.661,1.2-1.311,1.829-1.932l1.295,1.465c-.6.594-1.185,1.215-1.747,1.846m5.545-5.18-1.116-1.622c.693-.536,1.411-1.057,2.133-1.546l1.02,1.692c-.69.468-1.375.965-2.037,1.477m6.346-4.018-.816-1.812c.775-.393,1.571-.764,2.367-1.1l.709,1.862c-.759.325-1.519.68-2.259,1.055m6.938-2.708-.487-1.941c.827-.233,1.674-.442,2.516-.621l.372,1.969c-.8.171-1.611.37-2.4.593m7.284-1.3-.141-2c.852-.068,1.72-.109,2.578-.121l.027,2.008c-.821.012-1.65.051-2.464.116m8.266-.12h-.765v-2.008h.754c.579,0,1.156-.013,1.73-.039l.08,2.006c-.6.027-1.2.041-1.8.041m6.933-.606-.311-1.981c.808-.143,1.621-.314,2.418-.509l.426,1.957c-.834.2-1.686.384-2.533.533M562.288,553l-.65-1.886c.766-.3,1.534-.624,2.284-.972l.759,1.84c-.785.365-1.591.707-2.393,1.018m6.983-3.517-.967-1.727c.7-.443,1.4-.915,2.079-1.4l1.065,1.66c-.708.511-1.44,1-2.177,1.469m6.258-4.818-1.249-1.51c.615-.572,1.222-1.172,1.8-1.784l1.333,1.427c-.609.64-1.244,1.268-1.888,1.867m5.325-5.951-1.487-1.243c.506-.681,1-1.388,1.467-2.1l1.557,1.144c-.489.748-1.006,1.49-1.536,2.2m4.211-6.887-1.677-.932c.38-.77.743-1.562,1.078-2.355l1.729.821c-.351.831-.731,1.66-1.129,2.466m2.945-7.595-1.811-.588c.24-.829.458-1.678.648-2.522l1.842.468c-.2.884-.428,1.773-.679,2.642m1.569-8.034-1.882-.224c.091-.862.158-1.739.2-2.606l1.891.1c-.043.908-.114,1.826-.209,2.728m.264-8.132h-1.894v-2.678h1.894Zm0-8.033h-1.894V497.35h1.894Z" transform="translate(-148.311 8877.153)" fill="#3c89ff"/>
    <path id="Trazado_240611" data-name="Trazado 240611" d="M1216.452,693.216h-1.894v-2.678h1.894Zm0-8.033h-1.894v-2.678h1.894Zm0-8.033h-1.894v-2.678h1.894Zm0-8.033h-1.894v-2.678h1.894Zm0-8.033h-1.894v-2.678h1.894Zm0-8.033h-1.894v-2.678h1.894Zm0-8.033h-1.894V642.34h1.894Zm0-8.033h-1.894v-2.678h1.894Zm0-8.033h-1.894v-2.678h1.894Zm0-8.033h-1.894v-2.678h1.894Zm0-8.033h-1.894v-2.678h1.894Zm0-8.033h-1.894v-2.019q0-.323,0-.644l1.893-.03q.005.336.005.674Zm-2.271-7.874c-.111-.859-.25-1.726-.412-2.577l1.857-.4c.169.891.315,1.8.431,2.7Zm-1.682-7.627c-.259-.821-.546-1.646-.853-2.452l1.755-.753c.322.844.623,1.709.894,2.57Zm-2.979-7.164c-.4-.758-.823-1.513-1.264-2.242l1.595-1.083c.461.764.907,1.554,1.324,2.348Zm-4.171-6.463c-.522-.668-1.071-1.328-1.631-1.961l1.382-1.374c.586.662,1.16,1.353,1.707,2.053Zm-5.217-5.549c-.628-.556-1.282-1.1-1.942-1.614l1.122-1.618c.691.539,1.375,1.107,2.033,1.689Zm-6.086-4.446c-.715-.425-1.451-.832-2.189-1.209l.822-1.809c.773.4,1.544.821,2.293,1.266Zm-6.755-3.184c-.774-.277-1.568-.532-2.359-.758l.493-1.939c.829.237,1.661.5,2.472.795Zm-7.188-1.8c-.808-.12-1.633-.216-2.451-.284l.148-2c.856.071,1.72.171,2.567.3Zm-7.422-.416h-2.525v-2.008h2.525Zm-7.575,0h-2.525v-2.008h2.525Zm-7.575,0h-2.525v-2.008h2.525Zm-7.576,0h-2.525v-2.008h2.525Zm-7.652-.169c-.855-.079-1.718-.187-2.564-.321l.279-1.987c.809.128,1.633.231,2.449.306Zm-7.613-1.461c-.826-.245-1.655-.519-2.465-.817l.62-1.9c.774.284,1.565.547,2.354.78Zm-7.229-2.928c-.768-.4-1.534-.833-2.278-1.284l.94-1.744c.71.43,1.442.843,2.175,1.226Zm-6.592-4.286c-.687-.544-1.366-1.118-2.019-1.705l1.225-1.532c.624.561,1.272,1.109,1.928,1.629Zm-5.744-5.494c-.581-.667-1.15-1.364-1.693-2.069l1.468-1.269c.518.674,1.062,1.338,1.616,1.976Zm-4.7-6.516c-.457-.77-.9-1.565-1.308-2.364l1.662-.962c.393.763.813,1.522,1.248,2.258Zm-3.5-7.324c-.316-.849-.61-1.717-.875-2.582l1.8-.62c.253.825.534,1.655.835,2.464Zm-2.162-7.884c-.162-.891-.3-1.8-.409-2.7l1.878-.257c.1.862.237,1.731.39,2.581Zm-.755-8.163v-2.684h1.894v2.671Zm1.893-8.04h-1.894v-2.678h1.894Zm0-8.033h-1.894V497.35h1.894Z" transform="translate(-561.213 8877.153)" fill="#3c89ff"/>
    <path id="Trazado_240612" data-name="Trazado 240612" d="M981.419,682.457h-2.525v-2.008h2.525Zm-7.575,0h-2.525v-2.008h2.525Zm12.645-.008-.038-2.008c.819-.017,1.647-.063,2.46-.135l.158,2c-.853.076-1.721.123-2.581.142m7.691-.95-.4-1.963c.8-.182,1.6-.4,2.388-.633l.519,1.931c-.826.249-1.67.473-2.508.665m7.377-2.5-.75-1.844c.751-.344,1.5-.717,2.226-1.11l.861,1.789c-.762.412-1.549.8-2.337,1.165m6.777-3.963-1.07-1.657c.675-.49,1.343-1.009,1.986-1.544l1.168,1.581c-.675.561-1.376,1.105-2.084,1.62m5.938-5.267-1.349-1.41c.574-.617,1.137-1.263,1.673-1.919l1.431,1.315c-.563.688-1.153,1.366-1.755,2.013m4.883-6.376-1.578-1.11c.452-.723.888-1.471,1.3-2.223l1.642,1c-.428.79-.885,1.575-1.36,2.333m3.64-7.254-1.75-.768c.313-.8.6-1.626.868-2.448l1.793.645c-.276.863-.582,1.728-.911,2.571m2.252-7.868-1.857-.393c.16-.85.3-1.716.4-2.576l1.877.266c-.114.9-.256,1.812-.424,2.7m.779-8.169-1.894-.009v-.211c0-.8-.022-1.609-.066-2.4l1.891-.117c.046.831.069,1.679.069,2.519Zm-2.56-7.8c-.152-.852-.332-1.71-.536-2.549l1.835-.5c.213.881.4,1.781.562,2.675Zm-2.068-7.509c-.3-.8-.636-1.606-.989-2.388l1.708-.867c.37.821.72,1.665,1.038,2.507Zm-3.393-6.94c-.444-.727-.916-1.448-1.4-2.144l1.52-1.2c.512.73,1.008,1.488,1.474,2.25Zm-4.589-6.126c-.568-.625-1.162-1.237-1.766-1.821l1.276-1.484c.633.613,1.257,1.256,1.853,1.911Zm-5.609-5.087c-.671-.5-1.365-.98-2.063-1.43l.985-1.715c.733.473,1.461.978,2.165,1.5Zm-6.426-3.853c-.749-.353-1.518-.684-2.286-.983l.655-1.884c.806.315,1.613.662,2.4,1.032Zm-7.009-2.466c-.8-.191-1.61-.358-2.418-.495l.3-1.983c.847.143,1.7.318,2.538.519Zm-7.32-.985q-.586-.018-1.177-.019h-1.319V597.3h1.319q.62,0,1.234.02Zm-7.581-.047c-.858-.033-1.725-.1-2.578-.187l.189-2c.813.087,1.639.147,2.458.178Zm-7.675-1.084c-.836-.207-1.676-.445-2.5-.709l.549-1.922c.782.251,1.582.478,2.378.675Zm-7.336-2.634c-.78-.373-1.56-.779-2.318-1.206l.888-1.773c.722.407,1.465.793,2.209,1.149Zm-6.714-4.082c-.7-.526-1.391-1.083-2.058-1.656l1.193-1.56c.635.546,1.3,1.077,1.962,1.578Zm-5.855-5.372c-.593-.659-1.173-1.347-1.723-2.044l1.451-1.29c.525.664,1.077,1.319,1.642,1.948Zm-4.782-6.461c-.463-.767-.908-1.561-1.323-2.357l1.658-.971c.4.759.819,1.515,1.261,2.246Zm-3.526-7.318c-.315-.848-.608-1.718-.871-2.586l1.8-.613c.25.826.529,1.655.829,2.463Zm-2.126-7.9c-.154-.895-.283-1.807-.382-2.71l1.881-.233c.095.861.217,1.73.364,2.583Zm1.239-8.169H940.6v-2.678h1.894Zm0-8.033H940.6v-2.678h1.894Zm0-8.033H940.6v-2.678h1.894Zm0-8.033H940.6v-2.678h1.894Zm0-8.033H940.6v-2.678h1.894Zm0-8.033H940.6v-2.678h1.894Zm0-8.033H940.6v-2.678h1.894Zm0-8.033H940.6V497.35h1.894Z" transform="translate(-449.385 8877.153)" fill="#3c89ff"/>
    <path id="Trazado_240613" data-name="Trazado 240613" d="M443.422,1121.519H382.459a.935.935,0,0,1-.8-.462,1.058,1.058,0,0,1-.064-.96l14.862-34.414a.945.945,0,0,1,.861-.586h60.357a.934.934,0,0,1,.793.455,1.056,1.056,0,0,1,.074.953l-14.255,34.414a.947.947,0,0,1-.867.6m-59.488-2.008H442.8l13.423-32.405h-58.3Z" transform="translate(-66.767 8486.131)" fill="#3c89ff"/>
    <path id="Trazado_240614" data-name="Trazado 240614" d="M382.459,1088.915a.977.977,0,0,1-.947-1v-50.817a.977.977,0,0,1,.947-1h20.625a.944.944,0,0,1,.857.577l2.171,4.891h37.918a.977.977,0,0,1,.947,1v5.186a.949.949,0,1,1-1.894,0v-4.182H405.51a.945.945,0,0,1-.857-.577l-2.17-4.891H383.406v49.812a.977.977,0,0,1-.947,1" transform="translate(-66.767 8518.734)" fill="#3c89ff"/>
    <path id="Trazado_240615" data-name="Trazado 240615" d="M1572.466,928.4v68.717h-56.319V913.2h41.993Z" transform="translate(-843.266 8600.49)" fill="#ffc861"/>
    <path id="Trazado_240616" data-name="Trazado 240616" d="M1649.187,913.2l14.327,15.192h-14.327Z" transform="translate(-934.313 8600.49)" fill="#fd924b"/>
    <path id="Trazado_240617" data-name="Trazado 240617" d="M1586.134,1083.6h-29.4a.977.977,0,0,1-.947-1v-8.675a.949.949,0,1,1,1.894,0v7.671h27.51v-7.671a.949.949,0,1,1,1.894,0v8.675a.977.977,0,0,1-.947,1" transform="translate(-870.392 8494.235)" fill="#fff"/>
    <path id="Trazado_240618" data-name="Trazado 240618" d="M1584.287,1005.386a.932.932,0,0,1-.771-.421l-8.773-13.052a1.055,1.055,0,0,1-.071-1.043.942.942,0,0,1,.842-.544h2.751V973.272a1.016,1.016,0,0,1,.47-.867.9.9,0,0,1,.944-.006l4.608,2.768,4.608-2.768a.9.9,0,0,1,.944.006,1.018,1.018,0,0,1,.47.867v17.054h2.752a.942.942,0,0,1,.842.544,1.056,1.056,0,0,1-.071,1.043l-8.773,13.052a.933.933,0,0,1-.771.421m-6.936-13.052,6.936,10.319,6.936-10.319h-1.861a.976.976,0,0,1-.947-1V974.994l-3.661,2.2a.9.9,0,0,1-.934,0l-3.661-2.2V991.33a.976.976,0,0,1-.947,1Z" transform="translate(-883.246 8561.195)" fill="#fff"/>
    <path id="Trazado_240619" data-name="Trazado 240619" d="M1519.956,1354.689a.918.918,0,0,1-.678-.3l-11.452-12.463a1.047,1.047,0,0,1,.017-1.42.909.909,0,0,1,1.339.019l11.452,12.462a1.047,1.047,0,0,1-.017,1.42.916.916,0,0,1-.661.285" transform="translate(-837.388 8316.4)" fill="#3c89ff"/>
    <path id="Trazado_240620" data-name="Trazado 240620" d="M1365.614,1354.688a.915.915,0,0,1-.661-.285,1.047,1.047,0,0,1-.017-1.42l11.452-12.463a.909.909,0,0,1,1.339-.019,1.047,1.047,0,0,1,.017,1.42l-11.452,12.463a.919.919,0,0,1-.678.3" transform="translate(-739.6 8316.401)" fill="#3c89ff"/>
    <path id="Trazado_240621" data-name="Trazado 240621" d="M1427.036,1410.736h-48.219a1.006,1.006,0,0,1,0-2.008h48.219a1.006,1.006,0,0,1,0,2.008" transform="translate(-748.635 8270.821)" fill="#3c89ff"/>
    <path id="Trazado_240622" data-name="Trazado 240622" d="M828.326,1053.109H779.3a6.512,6.512,0,0,1-6.313-6.694V946.671a6.512,6.512,0,0,1,6.313-6.694h49.029a6.512,6.512,0,0,1,6.313,6.694v99.743a6.512,6.512,0,0,1-6.313,6.694" transform="translate(-334.675 8582.678)"/>
    <path id="Trazado_240623" data-name="Trazado 240623" d="M787.509,1057.076a2.608,2.608,0,0,1-2.525-2.678V954.656a2.608,2.608,0,0,1,2.525-2.678H792.1a1.412,1.412,0,0,1,1.368,1.45,5.541,5.541,0,0,0,5.366,5.69h26.381a5.541,5.541,0,0,0,5.366-5.69,1.412,1.412,0,0,1,1.368-1.45h4.591a2.608,2.608,0,0,1,2.525,2.678V1054.4a2.608,2.608,0,0,1-2.525,2.678Z" transform="translate(-342.887 8574.693)" fill="#fff"/>
    <path id="Trazado_240624" data-name="Trazado 240624" d="M867.947,953.557H855.431a1.09,1.09,0,0,0,0,2.176h12.516a1.09,1.09,0,0,0,0-2.176" transform="translate(-390.396 8573.643)" fill="#353535"/>
    <path id="Trazado_240625" data-name="Trazado 240625" d="M841.77,953.557a1.09,1.09,0,1,0,1.026,1.088,1.058,1.058,0,0,0-1.026-1.088" transform="translate(-381.047 8573.643)" fill="#353535"/>
    <path id="Trazado_240626" data-name="Trazado 240626" d="M819.779,1027.859H807.922a1.006,1.006,0,0,1,0-2.008h11.857a1.006,1.006,0,0,1,0,2.008" transform="translate(-357.937 8525.546)" fill="#3c89ff"/>
    <path id="Trazado_240627" data-name="Trazado 240627" d="M827.346,1046.4H807.922a1.006,1.006,0,0,1,0-2.008h19.424a1.006,1.006,0,0,1,0,2.008" transform="translate(-357.937 8513.212)" fill="#3c89ff"/>
    <path id="Trazado_240628" data-name="Trazado 240628" d="M827.346,1064.937H807.922a1.006,1.006,0,0,1,0-2.008h19.424a1.006,1.006,0,0,1,0,2.008" transform="translate(-357.937 8500.879)" fill="#3c89ff"/>
    <path id="Trazado_240629" data-name="Trazado 240629" d="M952.617,1019.063c0,7.871-6.017,14.251-13.44,14.251s-13.44-6.381-13.44-14.251,6.017-14.251,13.44-14.251,13.44,6.381,13.44,14.251" transform="translate(-439.214 8539.544)" fill="#00b25e"/>
    <path id="Trazado_240630" data-name="Trazado 240630" d="M951.509,1042.7h-.031a2.282,2.282,0,0,1-1.63-.778l-3.694-3.988a1.047,1.047,0,0,1,.012-1.42.909.909,0,0,1,1.339.013l3.707,4a.465.465,0,0,0,.3.163.446.446,0,0,0,.289-.148l6.628-7.045a.909.909,0,0,1,1.339,0,1.047,1.047,0,0,1,0,1.42l-6.614,7.03a2.27,2.27,0,0,1-1.616.754h-.029" transform="translate(-453 8520.655)" fill="#fff"/>
    <path id="Trazado_240631" data-name="Trazado 240631" d="M750.841,1107.609H692.432v37.975H731.65l6.481,6.872v-6.872h12.71Z" transform="translate(-279.548 8471.153)" fill="#cde8f9"/>
    <path id="Trazado_240632" data-name="Trazado 240632" d="M770.855,1144.788H750.229a1.006,1.006,0,0,1,0-2.008h20.626a1.006,1.006,0,0,1,0,2.008" transform="translate(-318.454 8447.754)" fill="#fff"/>
    <path id="Trazado_240633" data-name="Trazado 240633" d="M761.863,1163.469H725.84a1.006,1.006,0,0,1,0-2.008h36.023a1.006,1.006,0,0,1,0,2.008" transform="translate(-301.763 8435.326)" fill="#fff"/>
    <path id="Trazado_240634" data-name="Trazado 240634" d="M761.863,1182.15H725.84a1.006,1.006,0,0,1,0-2.008h36.023a1.006,1.006,0,0,1,0,2.008" transform="translate(-301.763 8422.897)" fill="#fff"/>
    <path id="Trazado_240635" data-name="Trazado 240635" d="M1445.908,1307.776a.976.976,0,0,1-.947-1v-1.709a7.02,7.02,0,1,0-14.016,0v1.709a.949.949,0,1,1-1.894,0v-1.709a8.917,8.917,0,1,1,17.8,0v1.709a.976.976,0,0,1-.947,1" transform="translate(-783.661 8346.068)" fill="#fff"/>
    <path id="Trazado_240636" data-name="Trazado 240636" d="M1443.064,1258.977a6.951,6.951,0,1,1,6.544-6.94,6.758,6.758,0,0,1-6.544,6.94m0-11.87a4.94,4.94,0,1,0,4.65,4.931,4.8,4.8,0,0,0-4.65-4.931" transform="translate(-788.773 8379.683)" fill="#fff"/>
    <path id="Trazado_241279" data-name="Trazado 241279" d="M0,0H595.676V515.278H0Z" transform="translate(194.324 9208.035)" fill="none"/>
  </g>
</svg>
