<svg id="Grupo_173269" data-name="Grupo 173269" xmlns="http://www.w3.org/2000/svg" width="112" height="112" viewBox="0 0 112 112">
  <circle id="Elipse_11434" data-name="Elipse 11434" cx="56" cy="56" r="56" fill="#12263f"/>
  <g id="Grupo_165893" data-name="Grupo 165893" transform="translate(25.441 25.44)">
    <path id="Trazado_226874" data-name="Trazado 226874" d="M1456.476,964.856c-.329-.02-.451-.073-.449-.436q.023-4.528,0-9.055c0-.317.061-.454.416-.512a8.861,8.861,0,1,0-2.818,0c.326.051.446.137.445.486-.014,2.833-.008,5.666-.008,8.5l-.1.021c-.052-.1-.1-.21-.157-.314a11.585,11.585,0,0,0-10.359-6.573,11.374,11.374,0,0,0-6.949,2.081c-.138.093-.3.419-.494.148a24.115,24.115,0,0,0-1.61-2.019c-.065-.074-.047-.233-.047-.352,0-1.807.006-3.614-.009-5.421,0-.335.092-.444.431-.5a8.844,8.844,0,1,0-2.819.01c.19.031.427-.019.426.305-.006,1.386,0,2.771,0,4.238a13.861,13.861,0,0,0-19.714,4.218c0-1.584.01-3.013-.007-4.443,0-.333.182-.341.42-.38a8.894,8.894,0,1,0-2.818-.011c.394.062.442.217.44.553q-.018,3.542,0,7.084c0,.369-.106.466-.47.522a8.859,8.859,0,0,0,1.55,17.6c3.511.009,7.023,0,10.535,0,1.191,0,1.228,0,1.182,1.213a5.268,5.268,0,0,0,1.559,4.3c.255.24.089.306-.081.438a8.606,8.606,0,0,0-3.455,7.264c0,.487.132.594.6.593q11.243-.023,22.487-.011a1.688,1.688,0,0,1,.246,0c.278.041.333-.087.341-.347a8.656,8.656,0,0,0-3.4-7.474c-.1-.081-.263-.113-.284-.292a5.165,5.165,0,0,0,1.6-2.708,9.612,9.612,0,0,0,.1-2.393c-.015-.482.118-.6.6-.6,4.127.02,8.255.033,12.383,0a7.879,7.879,0,0,0,.286-15.745Zm-7.017-14.874c-1.607-1.747-2.032-5.767.516-8.536a6.882,6.882,0,0,1,9.726-.41,6.735,6.735,0,0,1,.96,8.968,6.7,6.7,0,0,0-2.38-2.087c-.421-.208-.132-.367-.015-.541a3.867,3.867,0,0,0-.094-4.641,3.922,3.922,0,0,0-5.385-.829,3.871,3.871,0,0,0-1,5.385c.259.375.282.508-.156.733A6.272,6.272,0,0,0,1449.459,949.982Zm7.562-4.874a1.971,1.971,0,1,1-1.961-1.95A1.992,1.992,0,0,1,1457.021,945.108Zm-5.821,6.724c-.307-.2-.414-.342-.157-.708a4.953,4.953,0,0,1,8.012,0c.251.356.163.5-.153.709a7.3,7.3,0,0,1-4.124,1.18A6.9,6.9,0,0,1,1451.2,951.831Zm-23.467-5.8a6.718,6.718,0,0,1,.75-8.731,6.871,6.871,0,0,1,9.513-.234c2.563,2.317,3.038,6.511.983,9.005a6.552,6.552,0,0,0-2.25-2.029c-.38-.2-.369-.317-.142-.646a3.923,3.923,0,0,0-6.309-4.658,3.831,3.831,0,0,0-.156,4.632c.238.342.279.5-.149.687a4.234,4.234,0,0,0-1.238.9C1428.389,945.309,1428.065,945.678,1427.733,946.035Zm7.6-4.85a1.971,1.971,0,1,1-1.942-1.97A1.991,1.991,0,0,1,1435.335,941.185Zm-5.822,6.7c-.311-.2-.41-.348-.156-.709a4.955,4.955,0,0,1,8.013,0c.253.359.159.5-.155.707a6.851,6.851,0,0,1-7.7,0Zm-23.447,2.117a6.735,6.735,0,0,1,.782-8.809,6.868,6.868,0,0,1,9.56-.095c2.479,2.3,2.911,6.518.888,8.905a6.887,6.887,0,0,0-2.421-2.114c-.336-.168-.139-.294-.028-.452a3.923,3.923,0,0,0-2.735-6.221,3.917,3.917,0,0,0-3.668,6.1c.245.363.226.482-.165.686A6.526,6.526,0,0,0,1406.066,950.006Zm7.583-4.879a1.971,1.971,0,1,1-1.941-1.97A1.991,1.991,0,0,1,1413.649,945.127Zm-5.822,6.7c-.31-.2-.41-.346-.154-.708a4.952,4.952,0,0,1,8.012,0c.252.359.159.5-.156.708a6.851,6.851,0,0,1-7.7,0Zm15.8,40.583a6.437,6.437,0,0,1,4.43-5.259c.429-.134.959-.419,1.283-.275.305.136.157.785.231,1.2a11.4,11.4,0,0,0,1.695,4.328Zm17.616-15.381c.02,1.806,0,3.612.007,5.419a2.947,2.947,0,0,1-.646,1.94c-.533.65-1.122,1.14-2.049.691a2.662,2.662,0,0,0-.949-.235c-.464-.034-.517-.348-.629-.69-.121-.37.135-.462.338-.622a4.872,4.872,0,0,0,1.961-3.987c0-1.786-.007-3.571.008-5.357,0-.347-.036-.516-.452-.489a4.778,4.778,0,0,1-4.687-2.556c-.227-.382-.49-.742-.78-1.178-.357.532-.68,1-.986,1.473a4.532,4.532,0,0,1-4.228,2.254c-.61-.027-.733.151-.718.732.044,1.682.02,3.366.015,5.049a4.875,4.875,0,0,0,2.006,4.086c.2.15.427.252.3.578-.116.289-.081.648-.553.689a3.377,3.377,0,0,0-1.127.286,1.392,1.392,0,0,1-1.736-.479,2.853,2.853,0,0,1-.852-2.046c-.007-2.73-.037-5.46.009-8.189a7.879,7.879,0,0,1,15.658-.932A25.949,25.949,0,0,1,1441.245,977.033Zm-11.782-1.156c.225-.7,1.139-.448,1.695-.777a8.044,8.044,0,0,0,1.888-1.351c.22-.237.348-.311.613-.029a6.046,6.046,0,0,0,3.281,1.807c.336.068.373.207.371.482-.009,1.23.016,2.462-.01,3.692a2.944,2.944,0,0,1-2.872,2.875c-.7.02-1.4.017-2.092,0a2.955,2.955,0,0,1-2.912-2.9c-.014-.594,0-1.19,0-1.784A6.834,6.834,0,0,1,1429.463,975.876Zm5.467,13.1a10.558,10.558,0,0,1-1.307,2.625c-.2.294-.321.282-.521,0a10.262,10.262,0,0,1-1.325-2.683c-.12-.364.006-.452.359-.427.408.029.819.007,1.229.007.39,0,.781.025,1.168-.007C1434.943,988.454,1435.074,988.557,1434.93,988.977Zm-.126-2.459c-.491.017-.984.005-1.476.005-.533,0-1.066-.014-1.6.006-.275.01-.335-.09-.345-.35a5.529,5.529,0,0,1,.24-1.445c.052-.233.19-.206.362-.2.922.007,1.844,0,2.766,0,.041,0,.1-.026.12-.008a2.273,2.273,0,0,1,.469,1.666C1435.371,986.674,1435.028,986.511,1434.8,986.518Zm8.232,5.339c.116.419.114.6-.432.594-2.352-.033-4.705-.014-7.156-.014a11.24,11.24,0,0,0,1.806-5.217c.018-.206-.03-.433.361-.348A6.646,6.646,0,0,1,1443.035,991.858Zm18.907-18.851a5.9,5.9,0,0,1-5.695,5.618c-2.073.046-4.147.009-6.22.009v.005c-2.094,0-4.188-.014-6.282.011-.434.005-.533-.106-.537-.536a40.426,40.426,0,0,0-.093-4.8,9.853,9.853,0,0,0-19.363-.825,26.255,26.255,0,0,0-.23,5.461c-.005.539-.111.706-.686.7-3.7-.03-7.39,0-11.085-.019a6.9,6.9,0,1,1,.136-13.789c.921.022.9.016,1.141-.862,1.351-4.867,4.5-7.939,9.46-8.8,4.857-.838,8.8.946,11.753,4.913a.725.725,0,0,1-.07,1.118c-.956,1.048-.93,1.073.271,1.856.279.182.469.391.81-.057a9.417,9.417,0,0,1,9.774-3.894c4.134.779,6.7,3.4,7.794,7.452.247.915.231.92,1.144.612A5.917,5.917,0,0,1,1461.942,973.006Z" transform="translate(-1402.807 -933.3)" fill="#fff"/>
    <path id="Trazado_226875" data-name="Trazado 226875" d="M1488.146,1077.106a9.691,9.691,0,0,0-1.728-.166,9.851,9.851,0,0,0-9.229,6.154c-.594,1.517-.59,1.5.968,1.854.4.09.512-.025.621-.386a7.851,7.851,0,0,1,8-5.657c.444.017.992.421,1.31-.006.257-.345.212-.9.35-1.353C1488.528,1077.238,1488.409,1077.143,1488.146,1077.106Z" transform="translate(-1464.636 -1053.285)" fill="#fff"/>
  </g>
</svg>
