<svg xmlns="http://www.w3.org/2000/svg" width="610" height="465.565" viewBox="0 0 610 465.565">
  <g id="Grupo_173274" data-name="Grupo 173274" transform="translate(-180 -10632.981)">
    <path id="Trazado_240637" data-name="Trazado 240637" d="M282.02,741.03l-.068-1.724c.75-.029,1.508-.077,2.254-.142l.149,1.719c-.773.067-1.559.117-2.336.147m-4.679-.038c-.778-.043-1.563-.105-2.333-.185l.177-1.716c.744.077,1.5.137,2.251.178Zm11.653-.738-.313-1.7c.737-.136,1.481-.292,2.21-.464l.4,1.68c-.756.178-1.527.339-2.292.481M270.38,740.1c-.761-.154-1.53-.328-2.283-.518l.423-1.673c.727.183,1.467.352,2.2.5Zm25.4-1.62-.556-1.634c.71-.242,1.425-.5,2.125-.78l.634,1.6c-.725.286-1.466.558-2.2.809m-32.165-.263c-.731-.262-1.466-.546-2.184-.843l.66-1.594c.692.287,1.4.561,2.106.813Zm38.634-2.474-.785-1.536c.667-.341,1.336-.7,1.988-1.078l.859,1.5c-.676.388-1.369.763-2.061,1.117M257.2,735.38c-.685-.365-1.37-.751-2.037-1.148l.883-1.482c.643.383,1.3.755,1.965,1.107Zm51.057-3.273-1-1.408c.611-.433,1.22-.888,1.812-1.351l1.064,1.358c-.612.48-1.244.951-1.878,1.4m-57-.459c-.624-.457-1.248-.938-1.853-1.428l1.086-1.341c.584.473,1.185.936,1.787,1.378Zm62.416-4-1.189-1.25c.543-.516,1.082-1.053,1.6-1.595l1.247,1.192c-.537.562-1.094,1.118-1.657,1.653m-67.762-.543c-.554-.544-1.1-1.109-1.631-1.679l1.266-1.172c.51.55,1.039,1.1,1.574,1.62ZM318.4,722.46l-1.355-1.068c.464-.589.92-1.2,1.354-1.805l1.4,1c-.451.631-.923,1.261-1.4,1.871m-77.133-.618c-.472-.619-.934-1.257-1.375-1.9l1.421-.979c.425.617.872,1.233,1.327,1.829Zm81.069-5.19-1.494-.863c.375-.649.738-1.315,1.08-1.979l1.534.79c-.355.689-.732,1.379-1.12,2.052m-84.913-.683c-.378-.679-.744-1.378-1.09-2.076l1.547-.765c.333.673.687,1.347,1.051,2Zm87.973-5.629-1.6-.639c.277-.7.541-1.408.785-2.117l1.632.56c-.253.736-.527,1.474-.814,2.2m-90.933-.739c-.276-.727-.539-1.472-.78-2.214l1.641-.533c.233.715.485,1.434.752,2.135Zm93.052-5.953-1.678-.4c.173-.729.332-1.471.47-2.208l1.7.319c-.143.764-.308,1.534-.487,2.29m-95.061-.778c-.168-.758-.319-1.531-.45-2.3l1.7-.29c.126.739.272,1.484.434,2.216Zm96.191-6.148-1.718-.155c.067-.744.117-1.5.149-2.253l1.724.073c-.033.778-.085,1.563-.154,2.335m-97.206-.8c-.057-.774-.1-1.561-.116-2.337l1.725-.045c.02.749.057,1.508.112,2.256Zm97.4-3.628h-1.725c0-.75-.018-1.509-.053-2.258l1.723-.081c.037.776.055,1.563.055,2.339m-95.7-3.271-1.722-.118c.053-.775.126-1.559.216-2.331l1.714.2c-.087.744-.157,1.5-.208,2.248m93.494-3.482c-.107-.743-.233-1.492-.375-2.226l1.694-.328c.147.761.278,1.538.389,2.309Zm-92.547-3.22-1.687-.364c.164-.761.349-1.527.549-2.276l1.667.445c-.193.723-.371,1.461-.53,2.195m91.1-3.392c-.212-.718-.445-1.441-.693-2.149l1.629-.569c.256.735.5,1.484.718,2.229Zm-89.2-3.1-1.616-.6c.272-.727.564-1.456.87-2.168l1.585.681c-.3.686-.577,1.39-.839,2.091m86.814-3.232c-.315-.682-.65-1.364-1-2.03l1.53-.8c.36.69.708,1.4,1.034,2.1Zm-83.994-2.916-1.512-.831c.374-.68.769-1.36,1.175-2.022l1.471.9c-.392.638-.773,1.295-1.133,1.95m80.717-3.012c-.409-.628-.839-1.255-1.278-1.865l1.4-1.009c.455.632.9,1.282,1.325,1.932ZM242.493,664l-1.378-1.039c.466-.619.955-1.236,1.453-1.834l1.327,1.1c-.48.577-.952,1.172-1.4,1.769m72.949-2.728c-.494-.562-1.008-1.121-1.53-1.661l1.241-1.2c.541.56,1.074,1.139,1.586,1.722Zm-68.5-2.372-1.215-1.225c.55-.546,1.123-1.088,1.7-1.609l1.155,1.281c-.558.5-1.11,1.025-1.641,1.552m63.677-2.384c-.57-.487-1.159-.966-1.751-1.425l1.057-1.364c.613.475,1.224.972,1.815,1.477Zm-58.541-2.029-1.028-1.386c.625-.463,1.269-.918,1.914-1.35l.96,1.433c-.623.417-1.244.856-1.847,1.3m53.093-1.988c-.633-.4-1.284-.79-1.935-1.159l.851-1.5c.675.382,1.349.786,2.006,1.2ZM257.8,650.857l-.818-1.519c.685-.369,1.388-.726,2.09-1.062l.744,1.557c-.677.324-1.356.669-2.016,1.025m41.413-1.549c-.683-.3-1.383-.6-2.079-.867l.626-1.608c.722.281,1.448.584,2.156.9Zm-35.234-1.224-.591-1.621c.731-.266,1.48-.519,2.225-.75l.511,1.648c-.718.223-1.44.466-2.145.723m28.873-1.075c-.72-.2-1.457-.391-2.188-.559l.386-1.682c.759.175,1.521.37,2.269.58Zm-22.357-.776-.35-1.689c.761-.158,1.536-.3,2.3-.419l.268,1.7c-.74.116-1.487.253-2.221.4m15.726-.581c-.743-.1-1.5-.177-2.246-.238l.141-1.72c.774.063,1.557.146,2.327.247Zm-9.016-.31-.1-1.722c.772-.047,1.559-.076,2.338-.086l.022,1.725c-.752.01-1.512.038-2.257.083" transform="translate(15.194 10174.502)" fill="#3c89ff"/>
    <path id="Trazado_241293" data-name="Trazado 241293" d="M0,0H6.848V26.029H0Z" transform="translate(472.496 10745.828)" fill="#ffc861"/>
    <path id="Trazado_241294" data-name="Trazado 241294" d="M0,0H14.082V14.082H0Z" transform="translate(468.878 10745.828)" fill="#3c89ff"/>
    <path id="Trazado_241295" data-name="Trazado 241295" d="M0,0H6.848V26.029H0Z" transform="translate(519.485 10745.828)" fill="#ffc861"/>
    <path id="Trazado_241296" data-name="Trazado 241296" d="M0,0H14.082V14.082H0Z" transform="translate(515.867 10745.828)" fill="#3c89ff"/>
    <path id="Trazado_241297" data-name="Trazado 241297" d="M0,0H6.848V26.029H0Z" transform="translate(566.473 10745.828)" fill="#ffc861"/>
    <path id="Trazado_241298" data-name="Trazado 241298" d="M0,0H14.082V14.082H0Z" transform="translate(562.856 10745.828)" fill="#3c89ff"/>
    <path id="Trazado_240638" data-name="Trazado 240638" d="M1711.36,1377.472l-.068-1.724c.75-.029,1.508-.077,2.254-.142l.149,1.719c-.773.067-1.558.117-2.335.147m-4.68-.038c-.778-.043-1.562-.105-2.333-.185l.177-1.716c.744.077,1.5.137,2.251.178Zm11.653-.738-.313-1.7c.737-.136,1.481-.292,2.21-.464l.4,1.68c-.756.178-1.527.34-2.292.481m-18.613-.151c-.761-.154-1.529-.328-2.283-.518l.422-1.673c.727.184,1.468.352,2.2.5Zm25.4-1.62-.555-1.634c.71-.242,1.425-.5,2.124-.78l.634,1.6c-.725.286-1.466.559-2.2.809m-32.165-.263c-.731-.262-1.467-.546-2.184-.843l.66-1.594c.692.287,1.4.56,2.106.813Zm38.634-2.474-.786-1.536c.667-.341,1.336-.7,1.988-1.077l.858,1.5c-.676.388-1.369.764-2.061,1.117m-45.052-.366c-.685-.365-1.37-.751-2.037-1.148l.882-1.482c.643.383,1.3.755,1.965,1.107Zm51.057-3.273-1-1.408c.611-.433,1.22-.888,1.811-1.351l1.064,1.358c-.612.48-1.244.951-1.878,1.4m-57-.459c-.624-.458-1.248-.938-1.853-1.428l1.086-1.341c.584.473,1.185.936,1.787,1.378Zm62.417-4-1.189-1.25c.543-.517,1.081-1.053,1.6-1.6l1.247,1.192c-.537.561-1.094,1.117-1.657,1.653m-67.762-.543c-.554-.544-1.1-1.109-1.631-1.679l1.266-1.172c.51.551,1.039,1.1,1.573,1.62Zm72.489-4.644-1.355-1.068c.464-.589.92-1.2,1.354-1.805l1.4,1c-.451.632-.923,1.261-1.4,1.871m-77.132-.618c-.472-.618-.934-1.257-1.375-1.9l1.421-.979c.425.617.872,1.233,1.327,1.829Zm81.068-5.19-1.494-.863c.375-.649.738-1.315,1.08-1.979l1.534.79c-.355.689-.731,1.379-1.12,2.052m-84.913-.683c-.378-.679-.745-1.378-1.09-2.076l1.547-.765c.333.673.687,1.347,1.051,2Zm87.973-5.629-1.6-.638c.277-.7.541-1.408.785-2.118l1.632.561c-.253.735-.526,1.474-.814,2.2m-90.934-.738c-.276-.727-.538-1.472-.779-2.214l1.641-.533c.233.715.485,1.434.752,2.135Zm93.052-5.953-1.678-.4c.173-.728.332-1.472.47-2.208l1.7.319c-.143.764-.308,1.534-.487,2.289m-95.061-.778c-.168-.758-.319-1.531-.45-2.3l1.7-.291c.126.739.272,1.484.434,2.216Zm96.19-6.148-1.719-.155c.067-.744.117-1.5.149-2.253l1.724.073c-.033.778-.085,1.563-.154,2.335m-97.206-.8c-.057-.774-.1-1.561-.116-2.337l1.725-.045c.02.749.057,1.508.112,2.256Zm97.4-3.628h-1.725c0-.75-.018-1.509-.053-2.258l1.723-.081c.037.776.055,1.563.055,2.339m-95.7-3.271-1.722-.118c.053-.775.126-1.559.216-2.331l1.714.2c-.087.744-.157,1.5-.208,2.248m93.494-3.482c-.107-.743-.233-1.492-.375-2.226l1.694-.328c.147.761.278,1.538.388,2.309Zm-92.547-3.219-1.687-.364c.164-.761.349-1.527.549-2.276l1.667.445c-.193.723-.371,1.461-.529,2.195m91.1-3.392c-.212-.718-.445-1.441-.693-2.149l1.629-.569c.257.735.5,1.484.718,2.229Zm-89.2-3.1-1.616-.6c.272-.727.565-1.456.87-2.168l1.585.681c-.3.687-.577,1.39-.839,2.091m86.814-3.232c-.315-.682-.65-1.365-1-2.03l1.53-.8c.36.689.708,1.4,1.034,2.1Zm-83.994-2.916-1.512-.83c.374-.68.769-1.36,1.175-2.022l1.471.9c-.392.638-.773,1.295-1.133,1.95m80.718-3.013c-.409-.628-.839-1.255-1.278-1.864l1.4-1.009c.455.631.9,1.282,1.324,1.932Zm-77.041-2.668-1.378-1.039c.467-.619.955-1.236,1.453-1.834l1.327,1.1c-.48.577-.952,1.172-1.4,1.769m72.949-2.728c-.494-.562-1.009-1.121-1.53-1.662l1.241-1.2c.541.56,1.074,1.139,1.586,1.722Zm-68.5-2.372-1.216-1.225c.551-.546,1.123-1.088,1.7-1.609l1.156,1.281c-.558.5-1.11,1.025-1.641,1.552m63.677-2.384c-.57-.487-1.159-.966-1.751-1.425l1.057-1.364c.613.475,1.224.972,1.815,1.477Zm-58.541-2.029-1.028-1.386c.624-.463,1.269-.917,1.914-1.35l.96,1.433c-.623.417-1.244.856-1.847,1.3m53.093-1.988c-.633-.4-1.284-.79-1.935-1.159l.851-1.5c.675.382,1.349.786,2.006,1.2Zm-47.378-1.645-.818-1.519c.685-.369,1.388-.726,2.09-1.062l.745,1.557c-.677.324-1.356.668-2.016,1.025m41.413-1.549c-.683-.3-1.383-.6-2.079-.867l.626-1.608c.722.281,1.448.584,2.156.9Zm-35.234-1.224-.591-1.621c.731-.266,1.48-.519,2.225-.75l.511,1.648c-.718.222-1.439.466-2.145.723m28.873-1.075c-.72-.2-1.457-.391-2.188-.559l.386-1.682c.759.175,1.521.37,2.269.58Zm-22.357-.776-.35-1.689c.761-.157,1.536-.3,2.3-.419l.268,1.7c-.74.116-1.487.252-2.221.4m15.726-.581c-.743-.1-1.5-.177-2.246-.238l.141-1.72c.774.063,1.557.146,2.328.247Zm-9.016-.31-.1-1.722c.772-.047,1.559-.076,2.339-.086l.022,1.725c-.752.01-1.512.038-2.257.083" transform="translate(-1003.125 9721.075)" fill="#3c89ff"/>
    <path id="Trazado_240639" data-name="Trazado 240639" d="M1617.163,1241.271a11.33,11.33,0,0,0-1.457.1,25.556,25.556,0,0,0-25.385-28.811,25.592,25.592,0,0,0-25.406,22.545,15.188,15.188,0,1,0-7.263,28.635c0,.005,59.51.005,59.51.005a11.236,11.236,0,1,0,0-22.472" transform="translate(-919.062 9769.107)" fill="#fff"/>
    <path id="Trazado_240640" data-name="Trazado 240640" d="M1615.026,1262.468l-58.842,0c-.271,0-.494,0-.679-.016v.015a16.05,16.05,0,1,1,6.586-30.782,26.454,26.454,0,0,1,52.551,4.332c0,.736-.034,1.5-.1,2.269.164-.007.327-.01.488-.01a12.1,12.1,0,1,1,0,24.2m-59.5-1.731c.714.005,58.907.005,59.5.005a10.373,10.373,0,1,0,0-20.746,10.5,10.5,0,0,0-1.346.09.863.863,0,0,1-.967-.963,25.07,25.07,0,0,0,.2-3.111,24.728,24.728,0,0,0-49.28-2.946.863.863,0,0,1-1.258.662,14.157,14.157,0,0,0-6.652-1.639,14.325,14.325,0,0,0-.2,28.648Z" transform="translate(-916.926 9771.245)" fill="#3c89ff"/>
    <path id="Trazado_240641" data-name="Trazado 240641" d="M1682.262,1515.244a6.408,6.408,0,1,1-6.408-6.408,6.408,6.408,0,0,1,6.408,6.408" transform="translate(-1009.38 9558.026)" fill="#3c89ff"/>
    <path id="Trazado_240642" data-name="Trazado 240642" d="M1555.547,1515.4a6.408,6.408,0,1,1-6.408-6.408,6.408,6.408,0,0,1,6.408,6.408" transform="translate(-919.104 9557.918)" fill="#3c89ff"/>
    <path id="Trazado_240643" data-name="Trazado 240643" d="M1808.978,1515.4a6.408,6.408,0,1,1-6.408-6.408,6.408,6.408,0,0,1,6.408,6.408" transform="translate(-1099.658 9557.918)" fill="#3c89ff"/>
    <path id="Trazado_240644" data-name="Trazado 240644" d="M1691.731,1390.557v0Z" transform="translate(-1025.257 9642.293)" fill="#fff"/>
    <path id="Trazado_240645" data-name="Trazado 240645" d="M1689.594,1423.214a.862.862,0,0,1-.863-.863V1388.42a.863.863,0,0,1,1.725,0v33.932a.863.863,0,0,1-.863.863" transform="translate(-1023.12 9644.431)" fill="#3c89ff"/>
    <path id="Trazado_240646" data-name="Trazado 240646" d="M1761.3,1429.622h-8.183a5.9,5.9,0,0,1-5.889-5.889v-35.312a.863.863,0,1,1,1.725,0v35.312a4.168,4.168,0,0,0,4.163,4.163h8.183a.863.863,0,0,1,0,1.725" transform="translate(-1064.794 9644.43)" fill="#3c89ff"/>
    <path id="Trazado_240647" data-name="Trazado 240647" d="M1593.726,1429.622h-8.183a.863.863,0,0,1,0-1.725h8.183a4.168,4.168,0,0,0,4.163-4.163v-35.312a.863.863,0,0,1,1.725,0v35.312a5.9,5.9,0,0,1-5.889,5.889" transform="translate(-948.99 9644.43)" fill="#3c89ff"/>
    <path id="Trazado_240648" data-name="Trazado 240648" d="M1697.975,1266.724a.863.863,0,0,1-.849-.718l-2.646-15.543a.863.863,0,1,1,1.7-.29l2.5,14.71,14.707-2.191a.863.863,0,0,1,.254,1.707l-15.543,2.315a.873.873,0,0,1-.128.01" transform="translate(-1027.207 9742.82)" fill="#ffc861"/>
    <path id="Trazado_240649" data-name="Trazado 240649" d="M1682.84,1321.932a.862.862,0,0,1-.852-.736l-2.276-15.325-8.614,5.986a.863.863,0,0,1-.985-1.417l9.756-6.779a.863.863,0,0,1,1.346.581l2.48,16.7a.862.862,0,0,1-.726.98.875.875,0,0,1-.128.01" transform="translate(-1009.592 9704.312)" fill="#ffc861"/>
    <path id="Trazado_240650" data-name="Trazado 240650" d="M1663.975,1296.628a.876.876,0,0,1-.18-.019l-16.37-3.473a.863.863,0,1,1,.358-1.688l16.37,3.473a.863.863,0,0,1-.178,1.707" transform="translate(-993.205 9712.915)" fill="#ffc861"/>
    <path id="Trazado_240651" data-name="Trazado 240651" d="M1644.018,1257.5a1.761,1.761,0,1,1,2.49,0,1.761,1.761,0,0,1-2.49,0m21.83,17.077a2.5,2.5,0,1,1-3.533,0,2.5,2.5,0,0,1,3.533,0m12.661-18.531a1.917,1.917,0,1,1-2.711,0,1.917,1.917,0,0,1,2.711,0m-28.433,12.253a2.682,2.682,0,1,1,3.793,0,2.682,2.682,0,0,1-3.793,0Zm14.383-11.619a4.167,4.167,0,1,1-5.893,0,4.167,4.167,0,0,1,5.893,0m-7.842-10.177a3.407,3.407,0,1,1,4.818,0,3.406,3.406,0,0,1-4.818,0" transform="translate(-990.897 9749.07)" fill="#ffc861"/>
    <path id="Trazado_240652" data-name="Trazado 240652" d="M1741.178,1359.277a20.5,20.5,0,1,1,20.5,20.5,20.5,20.5,0,0,1-20.5-20.5" transform="translate(-1060.485 9679.181)" fill="#3c89ff"/>
    <path id="Trazado_240653" data-name="Trazado 240653" d="M1782.808,1391.712a12.091,12.091,0,0,1-12.078-12.078.863.863,0,1,1,1.725,0,10.349,10.349,0,1,0,3.031-7.321.863.863,0,1,1-1.22-1.22,12.078,12.078,0,1,1,8.541,20.618" transform="translate(-1081.54 9658.68)" fill="#fff"/>
    <path id="Trazado_240654" data-name="Trazado 240654" d="M1779.593,1375.047a.862.862,0,0,1-.817-1.138l1.253-3.727a.863.863,0,0,1,1.48-.277l2.473,2.968a.863.863,0,0,1-.49,1.4l-3.727.759a.876.876,0,0,1-.172.017m1.579-2.852-.284.845.845-.172Z" transform="translate(-1087.239 9657.228)" fill="#fff"/>
    <path id="Trazado_240655" data-name="Trazado 240655" d="M412.959,590.443H337.15V664.13c7.661,7.635,24.149,7.635,37.9,7.635s27.815-1.32,37.9-7.634V590.443" transform="translate(-60.199 10212.326)" fill="#fff"/>
    <path id="Trazado_240656" data-name="Trazado 240656" d="M412.959,567.875c0-4.216-16.97-7.634-37.9-7.634s-37.9,3.418-37.9,7.634,16.97,7.634,37.9,7.634,37.9-3.418,37.9-7.634" transform="translate(-60.199 10233.844)" fill="#3c89ff"/>
    <path id="Trazado_240657" data-name="Trazado 240657" d="M372.917,574.235c-19.265,0-38.767-2.919-38.767-8.5s19.5-8.5,38.767-8.5,38.767,2.919,38.767,8.5-19.5,8.5-38.767,8.5m0-15.269a141.789,141.789,0,0,0-26.632,2.219c-7.683,1.548-10.409,3.42-10.409,4.553s2.726,3.005,10.409,4.553a160.918,160.918,0,0,0,53.264,0c7.684-1.547,10.41-3.42,10.41-4.553s-2.726-3-10.41-4.553a141.787,141.787,0,0,0-26.632-2.219" transform="translate(-58.062 10235.98)" fill="#3c89ff"/>
    <path id="Trazado_240658" data-name="Trazado 240658" d="M372.917,619.868c-19.265,0-38.767-2.919-38.767-8.5V586.325h1.725v25.046c0,1.133,2.726,3.005,10.409,4.553a160.918,160.918,0,0,0,53.264,0c7.684-1.548,10.41-3.42,10.41-4.553V586.325h1.725v25.046c0,5.578-19.5,8.5-38.767,8.5" transform="translate(-58.062 10215.261)" fill="#3c89ff"/>
    <path id="Trazado_240659" data-name="Trazado 240659" d="M372.917,705.57c-19.265,0-38.767-2.919-38.767-8.5V672.026h1.725v25.046c0,1.133,2.726,3.005,10.409,4.553a160.923,160.923,0,0,0,53.264,0c7.684-1.548,10.41-3.42,10.41-4.553V672.026h1.725v25.046c0,5.578-19.5,8.5-38.767,8.5" transform="translate(-58.062 10154.203)" fill="#3c89ff"/>
    <path id="Trazado_240660" data-name="Trazado 240660" d="M372.917,793.135c-19.265,0-38.767-2.919-38.767-8.5V759.592h1.725v25.047c0,1.133,2.726,3.005,10.409,4.553a160.918,160.918,0,0,0,53.264,0c7.684-1.548,10.41-3.42,10.41-4.553V759.592h1.725v25.047c0,5.578-19.5,8.5-38.767,8.5" transform="translate(-58.062 10091.818)" fill="#3c89ff"/>
    <path id="Trazado_240661" data-name="Trazado 240661" d="M454.16,651.745h-8.974a3.3,3.3,0,1,1,0-6.6h8.974a3.3,3.3,0,1,1,0,6.6" transform="translate(-134.817 10173.354)" fill="#ffc861"/>
    <path id="Trazado_240662" data-name="Trazado 240662" d="M454.16,738.026h-8.974a3.3,3.3,0,1,1,0-6.6h8.974a3.3,3.3,0,1,1,0,6.6" transform="translate(-134.817 10111.884)" fill="#ffc861"/>
    <path id="Trazado_240663" data-name="Trazado 240663" d="M454.16,824.308h-8.974a3.3,3.3,0,1,1,0-6.6h8.974a3.3,3.3,0,1,1,0,6.6" transform="translate(-134.817 10050.413)" fill="#ffc861"/>
    <path id="Trazado_240664" data-name="Trazado 240664" d="M549.695,779.184a20.5,20.5,0,1,1-20.5-20.5,20.5,20.5,0,0,1,20.5,20.5" transform="translate(-182.42 10092.462)" fill="#3c89ff"/>
    <path id="Trazado_240665" data-name="Trazado 240665" d="M552.444,820.733h-.028a2.982,2.982,0,0,1-2.082-.938l-5.642-5.743a.863.863,0,0,1,1.231-1.209l5.653,5.755a1.135,1.135,0,0,0,1.732.016l10.1-10.123a.863.863,0,0,1,1.221,1.219l-10.087,10.11a2.982,2.982,0,0,1-2.071.913h-.026" transform="translate(-207.884 10057.161)" fill="#fff"/>
    <path id="Trazado_240666" data-name="Trazado 240666" d="M1832.86,765.181l-.068-1.724c.75-.029,1.508-.077,2.254-.142l.149,1.719c-.773.067-1.559.117-2.336.147m-4.679-.038c-.778-.043-1.563-.105-2.333-.185l.177-1.716c.744.077,1.5.137,2.251.178Zm11.653-.738-.313-1.7c.737-.136,1.481-.292,2.21-.464l.4,1.68c-.756.178-1.527.339-2.292.48m-18.613-.151c-.761-.154-1.53-.328-2.283-.518l.422-1.673c.727.184,1.468.352,2.2.5Zm25.4-1.62-.556-1.634c.71-.242,1.425-.5,2.125-.78l.634,1.6c-.725.286-1.466.558-2.2.809m-32.165-.263c-.731-.262-1.466-.546-2.184-.843l.66-1.594c.692.287,1.4.56,2.106.813Zm38.634-2.474-.785-1.536c.667-.341,1.336-.7,1.988-1.078l.859,1.5c-.676.388-1.369.763-2.061,1.117m-45.052-.366c-.685-.365-1.37-.751-2.037-1.148l.883-1.482c.643.383,1.3.755,1.965,1.107Zm51.057-3.273-1-1.407c.611-.433,1.22-.888,1.812-1.351l1.064,1.358c-.613.48-1.244.951-1.878,1.4m-57-.459c-.624-.458-1.248-.938-1.853-1.428l1.086-1.341c.584.473,1.185.936,1.787,1.378Zm62.416-4-1.189-1.25c.543-.516,1.081-1.053,1.6-1.595l1.247,1.192c-.536.562-1.094,1.118-1.657,1.653m-67.762-.543c-.554-.544-1.1-1.109-1.631-1.679l1.266-1.172c.51.55,1.039,1.1,1.574,1.62Zm72.489-4.644-1.355-1.068c.464-.589.92-1.2,1.354-1.805l1.4,1c-.451.631-.923,1.261-1.4,1.871m-77.133-.618c-.472-.619-.934-1.257-1.375-1.9l1.421-.979c.425.617.871,1.233,1.327,1.829Zm81.069-5.19-1.494-.863c.375-.649.738-1.315,1.08-1.979l1.534.79c-.355.689-.732,1.379-1.12,2.052m-84.913-.683c-.378-.679-.744-1.378-1.09-2.076l1.547-.765c.333.673.687,1.347,1.051,2Zm87.973-5.629-1.6-.639c.277-.7.541-1.408.785-2.117l1.632.56c-.253.736-.527,1.474-.814,2.2m-90.934-.739c-.276-.727-.538-1.472-.779-2.214l1.641-.533c.233.715.485,1.434.752,2.135Zm93.052-5.953-1.678-.4c.173-.729.332-1.471.47-2.208l1.7.319c-.144.764-.308,1.534-.487,2.29m-95.061-.778c-.168-.758-.319-1.531-.45-2.3l1.7-.29c.126.739.272,1.484.434,2.216Zm96.19-6.148-1.718-.155c.067-.744.117-1.5.149-2.253l1.724.073c-.033.778-.085,1.563-.154,2.335m-97.206-.8c-.057-.774-.1-1.561-.116-2.337l1.725-.045c.02.749.057,1.508.112,2.255Zm97.4-3.628h-1.725c0-.749-.018-1.509-.053-2.258l1.723-.081c.037.776.055,1.563.055,2.339m-95.7-3.271-1.722-.118c.053-.775.126-1.559.216-2.331l1.714.2c-.087.744-.157,1.5-.208,2.248m93.494-3.482c-.107-.743-.233-1.492-.375-2.226l1.694-.328c.147.761.278,1.538.389,2.309Zm-92.547-3.219-1.687-.364c.164-.761.349-1.527.549-2.276l1.667.445c-.193.723-.371,1.461-.529,2.195m91.1-3.392c-.212-.718-.445-1.441-.693-2.149l1.629-.569c.256.735.5,1.484.718,2.229Zm-89.2-3.1-1.616-.6c.272-.727.565-1.456.87-2.168l1.585.681c-.295.686-.577,1.39-.839,2.091m86.814-3.232c-.315-.682-.651-1.365-1-2.03l1.53-.8c.36.69.708,1.4,1.034,2.1Zm-83.994-2.916-1.512-.83c.374-.68.769-1.36,1.175-2.022l1.471.9c-.392.638-.773,1.295-1.133,1.95m80.718-3.012c-.409-.628-.839-1.255-1.278-1.865l1.4-1.009c.455.632.9,1.282,1.324,1.932Zm-77.041-2.669-1.378-1.039c.466-.619.955-1.236,1.453-1.834l1.326,1.1c-.48.577-.952,1.172-1.4,1.769m72.949-2.727c-.494-.562-1.009-1.121-1.531-1.662l1.241-1.2c.54.56,1.074,1.139,1.586,1.722Zm-68.5-2.372-1.216-1.225c.551-.546,1.123-1.088,1.7-1.609l1.155,1.281c-.558.5-1.11,1.025-1.641,1.552m63.677-2.384c-.57-.487-1.159-.966-1.751-1.425l1.057-1.364c.613.475,1.224.972,1.815,1.477Zm-58.541-2.029-1.028-1.386c.625-.463,1.269-.918,1.914-1.35l.96,1.433c-.623.417-1.244.856-1.847,1.3m53.093-1.988c-.633-.4-1.284-.79-1.935-1.159l.851-1.5c.675.382,1.349.786,2.006,1.2Zm-47.378-1.645-.818-1.519c.685-.369,1.388-.726,2.09-1.062l.745,1.557c-.677.324-1.356.669-2.016,1.025m41.413-1.549c-.683-.3-1.383-.6-2.079-.867l.626-1.608c.722.281,1.448.584,2.156.9Zm-35.234-1.224-.591-1.621c.731-.266,1.48-.519,2.225-.75l.511,1.648c-.718.223-1.44.466-2.145.723m28.873-1.075c-.72-.2-1.457-.391-2.188-.559l.386-1.682c.759.175,1.522.37,2.269.58Zm-22.357-.776-.35-1.689c.761-.158,1.536-.3,2.3-.419l.268,1.7c-.74.117-1.487.253-2.221.4m15.726-.581c-.743-.1-1.5-.177-2.246-.238l.141-1.72c.774.063,1.557.146,2.328.247Zm-9.016-.31-.1-1.722c.772-.047,1.559-.076,2.339-.086l.022,1.725c-.752.01-1.512.038-2.257.083" transform="translate(-1089.687 10157.296)" fill="#3c89ff"/>
    <path id="Trazado_240667" data-name="Trazado 240667" d="M1773.4,785.547h-59.525a5.176,5.176,0,0,1-5.176-5.176V765.705a5.176,5.176,0,0,1,5.176-5.176H1773.4a5.176,5.176,0,0,1,5.176,5.176v14.666a5.176,5.176,0,0,1-5.176,5.176" transform="translate(-1037.348 10091.15)" fill="#fcfcfc"/>
    <path id="Trazado_240668" data-name="Trazado 240668" d="M1771.266,784.272h-59.525a6.045,6.045,0,0,1-6.039-6.039V763.568a6.045,6.045,0,0,1,6.039-6.039h59.525a6.045,6.045,0,0,1,6.039,6.039v14.666a6.045,6.045,0,0,1-6.039,6.039m-59.525-25.018a4.318,4.318,0,0,0-4.313,4.313v14.666a4.318,4.318,0,0,0,4.313,4.313h59.525a4.318,4.318,0,0,0,4.313-4.313V763.568a4.318,4.318,0,0,0-4.313-4.313Z" transform="translate(-1035.21 10093.288)" fill="#3c89ff"/>
    <path id="Trazado_240669" data-name="Trazado 240669" d="M1746.2,789.28a5.751,5.751,0,1,0-5.751,5.751,5.751,5.751,0,0,0,5.751-5.751" transform="translate(-1055.872 10074.765)" fill="#3c89ff"/>
    <path id="Trazado_240670" data-name="Trazado 240670" d="M1867,795.031a2.3,2.3,0,0,1-2.3-2.3v-6.9a2.3,2.3,0,1,1,4.6,0v6.9a2.3,2.3,0,0,1-2.3,2.3" transform="translate(-1148.489 10074.765)" fill="#ffc861"/>
    <path id="Trazado_240671" data-name="Trazado 240671" d="M1908,795.031a2.3,2.3,0,0,1-2.3-2.3v-6.9a2.3,2.3,0,1,1,4.6,0v6.9a2.3,2.3,0,0,1-2.3,2.3" transform="translate(-1177.698 10074.765)" fill="#ffc861"/>
    <path id="Trazado_240672" data-name="Trazado 240672" d="M1773.4,893.547h-59.525a5.176,5.176,0,0,1-5.176-5.176V873.705a5.176,5.176,0,0,1,5.176-5.176H1773.4a5.176,5.176,0,0,1,5.176,5.176v14.666a5.176,5.176,0,0,1-5.176,5.176" transform="translate(-1037.348 10014.207)" fill="#fcfcfc"/>
    <path id="Trazado_240673" data-name="Trazado 240673" d="M1771.266,892.272h-59.525a6.045,6.045,0,0,1-6.039-6.039V871.568a6.045,6.045,0,0,1,6.039-6.039h59.525a6.045,6.045,0,0,1,6.039,6.039v14.666a6.045,6.045,0,0,1-6.039,6.039m-59.525-25.018a4.318,4.318,0,0,0-4.313,4.313v14.666a4.318,4.318,0,0,0,4.313,4.313h59.525a4.318,4.318,0,0,0,4.313-4.313V871.568a4.318,4.318,0,0,0-4.313-4.313Z" transform="translate(-1035.21 10016.345)" fill="#3c89ff"/>
    <path id="Trazado_240674" data-name="Trazado 240674" d="M1746.2,897.28a5.751,5.751,0,1,0-5.751,5.751,5.751,5.751,0,0,0,5.751-5.751" transform="translate(-1055.872 9997.821)" fill="#3c89ff"/>
    <path id="Trazado_240675" data-name="Trazado 240675" d="M1867,903.031a2.3,2.3,0,0,1-2.3-2.3v-6.9a2.3,2.3,0,1,1,4.6,0v6.9a2.3,2.3,0,0,1-2.3,2.3" transform="translate(-1148.489 9997.821)" fill="#ffc861"/>
    <path id="Trazado_240676" data-name="Trazado 240676" d="M1908,903.031a2.3,2.3,0,0,1-2.3-2.3v-6.9a2.3,2.3,0,1,1,4.6,0v6.9a2.3,2.3,0,0,1-2.3,2.3" transform="translate(-1177.698 9997.821)" fill="#ffc861"/>
    <path id="Trazado_240677" data-name="Trazado 240677" d="M1938.548,922.569a31.232,31.232,0,0,1-19.143,28.8l-.016.008-2.63,1.136-2.25-.961a31.34,31.34,0,0,1-18.807-28.642V906.077l21.1-11.544,21.744,11.566Z" transform="translate(-1170.574 9995.681)" fill="#3c89ff"/>
    <path id="Trazado_240678" data-name="Trazado 240678" d="M1830.2,847.529v0Z" transform="translate(-1123.909 10029.168)" fill="#fff"/>
    <path id="Trazado_240679" data-name="Trazado 240679" d="M1828.065,852.293a.863.863,0,0,1-.863-.863v-6.039a.863.863,0,1,1,1.725,0v6.039a.863.863,0,0,1-.863.863" transform="translate(-1121.772 10031.306)" fill="#3c89ff"/>
    <path id="Trazado_240680" data-name="Trazado 240680" d="M1718.891,1025.624a3.594,3.594,0,1,1-3.595-3.594,3.594,3.594,0,0,1,3.595,3.594" transform="translate(-1039.485 9904.848)" fill="#fff"/>
    <path id="Trazado_240681" data-name="Trazado 240681" d="M1713.159,1027.943a4.457,4.457,0,1,1,4.457-4.457,4.462,4.462,0,0,1-4.457,4.457m0-7.189a2.732,2.732,0,1,0,2.732,2.732,2.735,2.735,0,0,0-2.732-2.732" transform="translate(-1037.348 9906.984)" fill="#3c89ff"/>
    <path id="Trazado_240682" data-name="Trazado 240682" d="M1739.835,1025.492a.863.863,0,0,1-.6-1.482,6.457,6.457,0,0,0,0-9.268.863.863,0,0,1,1.2-1.239,8.183,8.183,0,0,1,0,11.747.861.861,0,0,1-.6.243" transform="translate(-1058.914 9911.096)" fill="#3c89ff"/>
    <path id="Trazado_240683" data-name="Trazado 240683" d="M1819.367,1016.862a7.333,7.333,0,1,1-7.333-7.333,7.333,7.333,0,0,1,7.333,7.333" transform="translate(-1105.742 9913.753)" fill="#fff"/>
    <path id="Trazado_240684" data-name="Trazado 240684" d="M1809.9,1022.92a8.2,8.2,0,1,1,8.2-8.2,8.2,8.2,0,0,1-8.2,8.2m0-14.666a6.47,6.47,0,1,0,6.47,6.47,6.477,6.477,0,0,0-6.47-6.47" transform="translate(-1103.605 9915.891)" fill="#3c89ff"/>
    <path id="Trazado_240685" data-name="Trazado 240685" d="M1792.808,1014.154a.86.86,0,0,1-.609-.252,11.933,11.933,0,1,1,17.029-.156.863.863,0,1,1-1.242-1.2,10.21,10.21,0,1,0-14.568.132.863.863,0,0,1-.61,1.473" transform="translate(-1094.343 9925.151)" fill="#3c89ff"/>
    <path id="Trazado_240686" data-name="Trazado 240686" d="M1830.2,955.529v0Z" transform="translate(-1123.909 9952.225)" fill="#fff"/>
    <path id="Trazado_240687" data-name="Trazado 240687" d="M1828.065,966.044a.863.863,0,0,1-.863-.863v-11.79a.863.863,0,1,1,1.725,0v11.79a.863.863,0,0,1-.863.863" transform="translate(-1121.772 9954.362)" fill="#3c89ff"/>
    <path id="Trazado_240688" data-name="Trazado 240688" d="M1749.7,1034.529h0Z" transform="translate(-1066.558 9895.941)" fill="#fff"/>
    <path id="Trazado_240689" data-name="Trazado 240689" d="M1759.642,1033.254h-12.078a.863.863,0,0,1,0-1.725h12.078a.863.863,0,0,1,0,1.725" transform="translate(-1064.421 9898.079)" fill="#3c89ff"/>
    <path id="Trazado_240690" data-name="Trazado 240690" d="M1868.7,1034.529h0Z" transform="translate(-1151.338 9895.941)" fill="#fff"/>
    <path id="Trazado_240691" data-name="Trazado 240691" d="M1876.629,1033.254h-10.065a.863.863,0,0,1,0-1.725h10.065a.863.863,0,1,1,0,1.725" transform="translate(-1149.201 9898.079)" fill="#3c89ff"/>
    <path id="Trazado_240692" data-name="Trazado 240692" d="M1944.91,967.726a.863.863,0,0,1-.684-.337l-2.875-3.738a.864.864,0,0,1-.179-.526V950.053a10.208,10.208,0,1,1,7.477,0v13.072a.864.864,0,0,1-.179.526l-2.875,3.738a.863.863,0,0,1-.684.337m-2.013-4.894,2.013,2.617,2.013-2.617V949.445a.863.863,0,0,1,.6-.821,8.483,8.483,0,1,0-5.221,0,.863.863,0,0,1,.6.821Z" transform="translate(-1198.359 9970.168)" fill="#fff"/>
    <path id="Trazado_240693" data-name="Trazado 240693" d="M827.4,508.83a31.148,31.148,0,0,0-.342-3.752l-6.538-1.083-2.216-6.185,4.356-4.994a32.966,32.966,0,0,0-4.67-6.042l-5.927,2.976-5.434-3.7.588-6.61a32.66,32.66,0,0,0-7.111-2.094l-3.079,5.882-6.572.154-3.376-5.72a32.872,32.872,0,0,0-7.207,2.547l.969,6.565-5.224,4-6.087-2.628a32.825,32.825,0,0,0-4.325,6.292l4.632,4.736-1.866,6.3-6.469,1.457a33.343,33.343,0,0,0-.124,3.988,35.628,35.628,0,0,0,.324,3.641l6.54,1.1,2.2,6.192-4.386,4.982a33.441,33.441,0,0,0,4.668,6.071l5.939-2.957,5.423,3.711-.615,6.612a33.13,33.13,0,0,0,7.329,2.161l3.062-5.9,6.572-.182,3.387,5.711a33.236,33.236,0,0,0,7.2-2.575l-.987-6.561,5.205-4.018,6.093,2.611a32.865,32.865,0,0,0,4.312-6.306l-4.659-4.717,1.843-6.317,6.474-1.468a33.492,33.492,0,0,0,.1-3.884m-24.059,11.236a13.562,13.562,0,1,1,1.234-19.16,13.565,13.565,0,0,1-1.234,19.16" transform="translate(-362.423 10292.899)" fill="#3c89ff"/>
    <path id="Trazado_240694" data-name="Trazado 240694" d="M842.332,528.915a19.613,19.613,0,1,0-1.79,27.68,19.637,19.637,0,0,0,1.79-27.68m-3.059,26.235a17.7,17.7,0,1,1,1.615-24.967,17.695,17.695,0,0,1-1.615,24.967" transform="translate(-395.633 10260.917)" fill="#fff"/>
    <path id="Trazado_240695" data-name="Trazado 240695" d="M1459.4,694.119a31.2,31.2,0,0,0-.342-3.752l-6.538-1.083L1450.3,683.1l4.356-4.994a32.968,32.968,0,0,0-4.67-6.042l-5.927,2.976-5.434-3.7.587-6.61a32.68,32.68,0,0,0-7.111-2.094l-3.079,5.882-6.572.154-3.376-5.72a32.857,32.857,0,0,0-7.207,2.547l.969,6.565-5.224,4-6.087-2.628a32.828,32.828,0,0,0-4.325,6.292l4.632,4.736-1.866,6.3-6.469,1.457a33.317,33.317,0,0,0-.124,3.988,35.6,35.6,0,0,0,.324,3.641l6.54,1.1,2.2,6.192-4.386,4.982a33.429,33.429,0,0,0,4.669,6.071l5.939-2.957,5.423,3.711-.615,6.612a33.12,33.12,0,0,0,7.329,2.161l3.062-5.9,6.572-.182,3.387,5.711a33.235,33.235,0,0,0,7.2-2.575l-.987-6.561,5.205-4.018,6.093,2.611a32.859,32.859,0,0,0,4.312-6.306l-4.659-4.717,1.843-6.317,6.474-1.468a33.532,33.532,0,0,0,.1-3.883m-24.059,11.235a13.562,13.562,0,1,1,1.235-19.16,13.565,13.565,0,0,1-1.235,19.16" transform="translate(-812.685 10160.892)" fill="#3c89ff"/>
    <path id="Trazado_240696" data-name="Trazado 240696" d="M1474.332,714.2a19.613,19.613,0,1,0-1.79,27.68,19.637,19.637,0,0,0,1.79-27.68m-3.059,26.235a17.7,17.7,0,1,1,1.615-24.967,17.695,17.695,0,0,1-1.615,24.967" transform="translate(-845.895 10128.909)" fill="#fff"/>
    <path id="Trazado_240697" data-name="Trazado 240697" d="M1296.4,1150.146a31.2,31.2,0,0,0-.342-3.752l-6.538-1.083-2.216-6.185,4.356-4.994a32.954,32.954,0,0,0-4.67-6.042l-5.927,2.976-5.434-3.7.587-6.61a32.678,32.678,0,0,0-7.111-2.094l-3.079,5.882-6.573.154-3.376-5.72a32.893,32.893,0,0,0-7.207,2.547l.969,6.565-5.223,4-6.087-2.628a32.822,32.822,0,0,0-4.325,6.292l4.632,4.736-1.866,6.3-6.469,1.457a33.342,33.342,0,0,0-.124,3.988,35.624,35.624,0,0,0,.324,3.641l6.54,1.1,2.2,6.192-4.386,4.982a33.428,33.428,0,0,0,4.669,6.071l5.939-2.957,5.423,3.711-.615,6.612a33.112,33.112,0,0,0,7.329,2.161l3.062-5.9,6.572-.182,3.387,5.712a33.256,33.256,0,0,0,7.2-2.576l-.987-6.561,5.205-4.018,6.093,2.611a32.866,32.866,0,0,0,4.312-6.306l-4.659-4.717,1.843-6.317,6.474-1.468a33.5,33.5,0,0,0,.1-3.883m-24.059,11.235a13.562,13.562,0,1,1,1.235-19.16,13.565,13.565,0,0,1-1.235,19.16" transform="translate(-696.557 9836)" fill="#3c89ff"/>
    <path id="Trazado_240698" data-name="Trazado 240698" d="M1311.332,1170.232a19.613,19.613,0,1,0-1.79,27.68,19.637,19.637,0,0,0,1.79-27.68m-3.059,26.235a17.7,17.7,0,1,1,1.615-24.967,17.695,17.695,0,0,1-1.615,24.967" transform="translate(-729.768 9804.017)" fill="#fff"/>
    <path id="Trazado_240699" data-name="Trazado 240699" d="M727.215,568.355h-.351V566.63h.351c.634,0,1.275-.016,1.9-.049l.089,1.723c-.659.034-1.329.051-1.993.051m-4.952,0h-2.3V566.63h2.3Zm-6.9,0h-2.3V566.63h2.3Zm-6.9,0h-2.3V566.63h2.3Zm-6.9,0h-2.3V566.63h2.3Zm-6.9,0h-2.3V566.63h2.3Zm-6.9,0h-2.3V566.63h2.3Zm-6.9,0h-2.3V566.63h2.3Zm-6.9,0h-2.3V566.63h2.3Zm-6.9,0h-2.3V566.63h2.3Zm-6.9,0h-2.3V566.63h2.3Zm73.73-.579-.3-1.7c.736-.129,1.476-.283,2.2-.457l.4,1.678c-.758.182-1.533.343-2.3.479m6.8-1.859-.608-1.615c.7-.262,1.393-.549,2.073-.854l.706,1.574c-.712.319-1.443.621-2.172.895m6.333-3.079-.894-1.476c.636-.385,1.27-.8,1.883-1.222l.983,1.418c-.642.445-1.306.876-1.972,1.28m5.664-4.191-1.149-1.287c.557-.5,1.105-1.018,1.629-1.547l1.226,1.214c-.549.554-1.123,1.1-1.706,1.62m4.805-5.156-1.365-1.056c.457-.59.9-1.2,1.32-1.819l1.427.97c-.439.646-.9,1.287-1.382,1.905m3.783-5.951-1.535-.787c.341-.666.665-1.35.964-2.032l1.581.691c-.313.715-.652,1.431-1.01,2.128m2.623-6.549-1.654-.49c.212-.714.4-1.445.571-2.172l1.681.387c-.175.762-.376,1.528-.6,2.276m1.368-6.916-1.716-.177c.076-.741.131-1.5.162-2.241l1.724.072c-.033.78-.09,1.569-.169,2.345m.2-6.981h-1.725v-2.3h1.725Zm0-6.9h-1.725v-2.3h1.725Zm0-6.9h-1.725v-2.3h1.725Zm0-6.9h-1.725v-2.3h1.725Zm0-6.9h-1.725v-2.3h1.725Z" transform="translate(-288.679 10278.766)" fill="#3c89ff"/>
    <path id="Trazado_240700" data-name="Trazado 240700" d="M1278.592,752.493h-2.3v-1.725h2.3Zm-6.9,0h-2.3v-1.725h2.3Zm-6.9,0h-2.3v-1.725h2.3Zm-6.9,0h-2.3v-1.725h2.3Zm-6.9,0h-2.3v-1.725h2.3Zm-6.9,0h-2.3v-1.725h2.3Zm-6.9,0h-2.3v-1.725h2.3Zm-6.9,0h-2.3v-1.725h2.3Zm-6.993-.281c-.777-.095-1.559-.214-2.325-.355l.313-1.7c.732.135,1.479.249,2.221.34Zm-6.889-1.494c-.744-.235-1.491-.5-2.22-.779l.621-1.61c.7.269,1.409.519,2.119.743Zm-6.492-2.739c-.686-.368-1.372-.763-2.037-1.174l.907-1.468c.635.392,1.289.769,1.944,1.12Zm-5.877-3.885c-.61-.489-1.212-1-1.788-1.527l1.16-1.277c.551.5,1.126.991,1.708,1.459Zm-5.07-4.9c-.51-.592-1.008-1.207-1.481-1.829l1.374-1.044c.451.594.927,1.182,1.414,1.747Zm-4.093-5.742c-.394-.677-.771-1.374-1.121-2.071l1.542-.774c.334.665.694,1.331,1.07,1.978Zm-2.969-6.4c-.262-.737-.5-1.49-.719-2.24l1.658-.476c.205.715.436,1.435.686,2.139Zm-1.734-6.833c-.121-.77-.22-1.556-.293-2.333l1.718-.162c.07.743.164,1.493.28,2.229Zm1.261-7.009H1189.7v-2.3h1.725Zm0-6.9H1189.7v-2.3h1.725Zm0-6.9H1189.7v-2.3h1.725Zm0-6.9H1189.7v-2.3h1.725Zm0-6.9H1189.7v-2.3h1.725Zm0-6.9H1189.7v-2.3h1.725Zm0-6.9H1189.7v-2.3h1.725Zm0-6.9H1189.7v-2.3h1.725Zm0-6.9H1189.7v-2.3h1.725Zm0-6.9H1189.7v-2.3h1.725Zm0-6.9H1189.7v-2.3h1.725Zm0-6.9H1189.7V635h1.725Zm0-6.9H1189.7v-2.3h1.725Zm0-6.9H1189.7v-2.3h1.725Zm0-6.9H1189.7v-2.3h1.725Zm0-6.9H1189.7v-2.3h1.725Zm0-6.9H1189.7v-2.3h1.725Zm0-6.9H1189.7v-2.3h1.725Zm0-6.9H1189.7v-2.3h1.725Zm0-6.9H1189.7v-2.3h1.725Zm0-6.9H1189.7v-2.3h1.725Zm0-6.9H1189.7v-2.3h1.725Zm0-6.9H1189.7v-2.3h1.725Zm0-6.9H1189.7v-2.3h1.725Zm0-6.9H1189.7v-2.3h1.725Zm0-6.9H1189.7v-2.3h1.725Zm0-6.9H1189.7v-2.3h1.725Zm0-6.9H1189.7v-2.3h1.725Zm0-6.9H1189.7v-2.3h1.725Zm0-6.9H1189.7v-2.3h1.725Zm0-6.9H1189.7v-2.3h1.725Zm0-6.9H1189.7v-2.3h1.725Z" transform="translate(-667.591 10278.92)" fill="#3c89ff"/>
    <path id="Trazado_240701" data-name="Trazado 240701" d="M1441.6,621.357h-2.3v-1.725h2.3Zm-6.9,0h-2.3v-1.725h2.3Zm-6.9,0h-2.3v-1.725h2.3Zm-6.9,0h-2.3v-1.725h2.3Zm-6.9,0h-2.3v-1.725h2.3Zm-6.9,0h-2.3v-1.725h2.3Zm-6.9,0h-2.3v-1.725h2.3Zm-6.9,0h-2.3v-1.725h2.3Zm-6.993-.28c-.776-.094-1.559-.213-2.325-.355l.313-1.7c.732.135,1.479.249,2.22.339Zm-6.889-1.492c-.743-.235-1.49-.5-2.221-.778l.621-1.61c.7.269,1.41.519,2.119.742Zm-6.493-2.737c-.687-.368-1.372-.763-2.037-1.173l.906-1.468c.635.392,1.289.769,1.945,1.12Zm-5.878-3.884c-.609-.488-1.211-1-1.789-1.527l1.16-1.278c.552.5,1.127.992,1.708,1.458Zm-5.071-4.894c-.51-.591-1.008-1.207-1.481-1.829l1.374-1.044c.451.594.927,1.182,1.414,1.746Zm-4.093-5.741c-.394-.676-.771-1.373-1.122-2.071l1.542-.775c.335.666.695,1.332,1.071,1.977Zm-2.97-6.4c-.262-.736-.5-1.49-.719-2.24l1.658-.477c.206.716.437,1.435.687,2.139Zm-1.735-6.832c-.121-.77-.22-1.555-.294-2.334l1.718-.163c.071.744.165,1.494.281,2.229Zm1.259-7.01H1352.7v-2.3h1.725Zm0-6.9H1352.7v-2.3h1.725Zm0-6.9H1352.7v-2.3h1.725Zm0-6.9H1352.7v-2.3h1.725Zm0-6.9H1352.7v-2.3h1.725Zm0-6.9H1352.7v-2.3h1.725Zm0-6.9H1352.7v-2.3h1.725Zm0-6.9H1352.7v-2.3h1.725Zm0-6.9H1352.7v-2.3h1.725Zm0-6.9H1352.7v-2.3h1.725Zm0-6.9H1352.7v-2.3h1.725Zm0-6.9H1352.7v-2.3h1.725Zm0-6.9H1352.7v-2.3h1.725Z" transform="translate(-783.719 10278.92)" fill="#3c89ff"/>
    <path id="Trazado_240702" data-name="Trazado 240702" d="M228.912,1310.007H52.46L.206,1212.776a1.726,1.726,0,0,1,.287-2.024l1.437-1.468H174.781Z" transform="translate(180 9771.439)"/>
    <path id="Trazado_240703" data-name="Trazado 240703" d="M89.547,1318.666l-47.833-89H201l47.833,89Z" transform="translate(150.281 9756.92)" fill="#fff"/>
    <path id="Trazado_240704" data-name="Trazado 240704" d="M374.86,1566.529H198.408l-15.976-4.309v-2.667h208.4v2.667Z" transform="translate(50.028 9521.895)" fill="#2264c4"/>
    <path id="Trazado_240705" data-name="Trazado 240705" d="M493.425,1566.529H316.973L301,1562.22v-2.667H509.4v2.667Z" transform="translate(-34.442 9521.895)" fill="#3c89ff"/>
    <path id="Trazado_240706" data-name="Trazado 240706" d="M239.437,1184.68l40.871,75.924c.849,1.576.241,2.856-1.358,2.859l-148.454.222a5.657,5.657,0,0,1-4.431-2.85l-45.4-84.345c-.849-1.576-.24-2.856,1.358-2.859l21.663-.032a5.658,5.658,0,0,1,4.431,2.85l1.46,2.712a5.657,5.657,0,0,0,4.431,2.85l121-.181a5.658,5.658,0,0,1,4.431,2.85" transform="translate(122.807 9796.863)" fill="#ebf2ff"/>
    <path id="Trazado_240707" data-name="Trazado 240707" d="M105.523,1183.824c.541,1,.153,1.819-.865,1.821a3.6,3.6,0,0,1-2.823-1.816c-.541-1-.153-1.819.865-1.821a3.6,3.6,0,0,1,2.823,1.815" transform="translate(107.622 9790.871)" fill="#ff4731"/>
    <path id="Trazado_240708" data-name="Trazado 240708" d="M128.554,1183.79c.541,1,.153,1.819-.865,1.821a3.6,3.6,0,0,1-2.823-1.816c-.541-1-.153-1.819.865-1.821a3.6,3.6,0,0,1,2.823,1.815" transform="translate(91.214 9790.896)" fill="#ffc861"/>
    <path id="Trazado_240709" data-name="Trazado 240709" d="M151.585,1183.755c.54,1,.153,1.819-.865,1.821a3.6,3.6,0,0,1-2.822-1.816c-.541-1-.154-1.819.865-1.821a3.6,3.6,0,0,1,2.823,1.815" transform="translate(74.806 9790.92)" fill="#00b25e"/>
    <path id="Trazado_240710" data-name="Trazado 240710" d="M723.171,921.062h-2.3v-1.725h2.3Zm-6.9,0h-2.3v-1.725h2.3Zm-6.9,0h-2.3v-1.725h2.3Zm-6.9,0h-2.3v-1.725h2.3Zm-6.9,0h-2.3v-1.725h2.3Zm-6.9,0h-2.3v-1.725h2.3Zm-6.9,0h-2.3v-1.725h2.3Zm46.024-.005-.028-1.725c.747-.012,1.5-.047,2.245-.1l.133,1.721c-.778.06-1.568.1-2.349.109m7.007-.758-.343-1.691c.729-.148,1.465-.321,2.186-.514l.447,1.666c-.755.2-1.526.384-2.29.539m6.749-2.036-.649-1.6c.689-.28,1.379-.585,2.05-.908l.747,1.555c-.7.338-1.426.658-2.148.951m6.252-3.243-.932-1.452c.627-.4,1.25-.83,1.851-1.271l1.02,1.392c-.63.461-1.282.909-1.938,1.331m5.554-4.337-1.182-1.257c.544-.511,1.078-1.046,1.589-1.589l1.257,1.182c-.535.568-1.094,1.128-1.663,1.663m4.671-5.279-1.391-1.02c.441-.6.869-1.224,1.273-1.853l1.452.933c-.423.659-.872,1.311-1.333,1.94m3.628-6.048-1.555-.747c.324-.674.63-1.366.911-2.057l1.6.65c-.294.724-.615,1.448-.954,2.154m2.451-6.616-1.666-.447c.193-.718.366-1.453.514-2.186l1.691.343c-.156.767-.337,1.538-.539,2.29m1.187-6.948-1.72-.132c.057-.743.092-1.5.1-2.244l1.725.028c-.013.781-.049,1.571-.109,2.349m.114-6.964h-1.725v-2.3H765.4Zm0-6.9h-1.725v-2.3H765.4Zm0-6.9h-1.725v-2.3H765.4Zm0-6.9h-1.725v-2.3H765.4Zm0-6.9h-1.725v-2.3H765.4Zm0-6.9h-1.725v-2.3H765.4Zm0-6.9h-1.725v-2.3H765.4Zm0-6.9h-1.725v-2.3H765.4Zm0-6.9h-1.725v-2.3H765.4Zm0-6.9h-1.725v-2.3H765.4Zm0-6.9h-1.725v-2.3H765.4Zm-1.758-6.865c-.032-.746-.087-1.5-.163-2.24l1.716-.178c.08.776.138,1.565.171,2.346Zm-.9-6.67c-.168-.728-.36-1.458-.572-2.172l1.654-.491c.222.748.424,1.513.6,2.275Zm-2.114-6.389c-.3-.681-.621-1.362-.962-2.026l1.535-.788c.357.7.7,1.409,1.008,2.123ZM757.371,784c-.418-.615-.862-1.227-1.319-1.817l1.365-1.056c.479.618.943,1.258,1.381,1.9Zm-4.28-5.194c-.525-.529-1.073-1.05-1.63-1.547l1.149-1.287c.583.52,1.157,1.065,1.706,1.62Zm-5.158-4.327c-.615-.426-1.249-.837-1.886-1.224l.894-1.476c.667.4,1.332.835,1.975,1.281Zm-5.865-3.31c-.683-.306-1.383-.594-2.08-.856l.606-1.615c.731.275,1.465.576,2.179.9ZM735.693,769c-.725-.174-1.465-.327-2.2-.455l.3-1.7c.769.135,1.544.3,2.3.477Zm-6.662-.956c-.621-.031-1.253-.047-1.878-.047h-.377v-1.725h.377c.654,0,1.316.017,1.966.049ZM722.174,768h-2.3v-1.725h2.3Zm-6.9,0h-2.3v-1.725h2.3Zm-6.9,0h-2.3v-1.725h2.3Zm-6.9,0h-2.3v-1.725h2.3Zm-6.9,0h-2.3v-1.725h2.3Zm-6.9,0h-2.3v-1.725h2.3Zm-6.9,0h-2.3v-1.725h2.3Zm-6.9,0h-2.3v-1.725h2.3Zm-6.9,0h-2.3v-1.725h2.3Zm-6.9,0h-2.3v-1.725h2.3Z" transform="translate(-288.615 10087.059)" fill="#3c89ff"/>
    <path id="Trazado_240711" data-name="Trazado 240711" d="M825.269,1068.288h-2.3v-1.725h2.3Zm-6.9,0h-2.3v-1.725h2.3Zm-6.9,0h-2.3v-1.725h2.3Zm-6.9,0h-2.3v-1.725h2.3Zm-6.9,0h-2.3v-1.725h2.3Zm-6.9,0h-2.3v-1.725h2.3Zm-6.9,0h-2.3v-1.725h2.3Zm-6.9,0h-2.3v-1.725h2.3Zm-6.9,0h-2.3v-1.725h2.3Zm59.832-.01-.039-1.725c.748-.017,1.5-.056,2.244-.118l.143,1.72c-.776.065-1.566.106-2.349.124m7-.8-.353-1.689c.729-.152,1.464-.33,2.183-.528l.457,1.664c-.753.207-1.523.393-2.287.553m6.737-2.078-.66-1.594c.688-.284,1.375-.594,2.045-.921l.756,1.551c-.7.342-1.422.667-2.142.964m6.232-3.282-.942-1.446c.624-.406,1.244-.838,1.843-1.282l1.028,1.385c-.627.466-1.276.917-1.93,1.343m5.527-4.371-1.19-1.25c.54-.514,1.071-1.052,1.579-1.6l1.264,1.174c-.532.573-1.088,1.135-1.654,1.674m4.638-5.308-1.4-1.011c.438-.606.863-1.232,1.261-1.861l1.457.924c-.418.659-.862,1.314-1.32,1.948m3.59-6.07-1.56-.737c.319-.676.621-1.37.9-2.062l1.6.639c-.289.725-.606,1.452-.94,2.16m2.409-6.631-1.669-.436c.188-.721.357-1.458.5-2.19l1.693.332c-.15.766-.327,1.538-.524,2.294m1.143-6.956-1.721-.122c.053-.743.083-1.5.09-2.245l1.725.018c-.008.782-.04,1.572-.094,2.349m.1-6.959h-1.725v-2.3h1.725Zm0-6.9h-1.725v-2.3h1.725Zm0-6.9h-1.725v-2.3h1.725Zm0-6.9h-1.725v-2.3h1.725Zm0-6.9h-1.725v-2.3h1.725Zm0-6.9h-1.725v-1.941c0-.124,0-.246,0-.368l1.725.016q0,.176,0,.352Zm.316-6.772-1.711-.226c.1-.776.231-1.557.38-2.321l1.693.331c-.143.73-.265,1.476-.363,2.216m1.5-6.562-1.639-.537c.243-.742.513-1.486.8-2.212l1.6.638c-.276.693-.533,1.4-.766,2.111m2.68-6.17-1.512-.831c.376-.684.778-1.365,1.195-2.024l1.458.922c-.4.629-.782,1.279-1.141,1.933m3.769-5.573-1.334-1.094c.5-.6,1.015-1.2,1.546-1.772L877,964.545c-.507.546-1,1.116-1.477,1.693m4.727-4.793-1.112-1.319c.6-.5,1.219-1,1.844-1.461l1.03,1.384c-.6.445-1.19.914-1.762,1.4m5.524-3.85-.852-1.5c.68-.386,1.381-.756,2.083-1.1l.758,1.55c-.67.328-1.339.681-1.989,1.05m6.139-2.769-.561-1.632c.738-.254,1.494-.487,2.248-.7l.458,1.663c-.72.2-1.442.422-2.146.663m6.54-1.586-.249-1.707c.773-.113,1.559-.2,2.337-.269l.144,1.719c-.743.062-1.494.149-2.232.256m126.38-.386h-2.3v-1.725h2.3Zm-6.9,0h-2.3v-1.725h2.3Zm-6.9,0h-2.3v-1.725h2.3Zm-6.9,0h-2.3v-1.725h2.3Zm-6.9,0h-2.3v-1.725h2.3Zm-6.9,0h-2.3v-1.725h2.3Zm-6.9,0h-2.3v-1.725h2.3Zm-6.9,0h-2.3v-1.725h2.3Zm-6.9,0h-2.3v-1.725h2.3Zm-6.9,0h-2.3v-1.725h2.3Zm-6.9,0h-2.3v-1.725h2.3Zm-6.9,0h-2.3v-1.725h2.3Zm-6.9,0h-2.3v-1.725h2.3Zm-6.9,0h-2.3v-1.725h2.3Zm-6.9,0h-2.3v-1.725h2.3Zm-6.9,0h-2.3v-1.725h2.3Zm-6.9,0h-2.3v-1.725h2.3Zm-6.9,0h-2.3v-1.725h2.3Z" transform="translate(-366.981 9955.36)" fill="#3c89ff"/>
    <path id="Trazado_240712" data-name="Trazado 240712" d="M998.29,1408.879h-2.3v-1.725h2.3Zm-6.9,0h-2.3v-1.725h2.3Zm-6.9,0h-2.3v-1.725h2.3Zm-6.9,0h-2.3v-1.725h2.3Zm-6.9,0h-2.3v-1.725h2.3Zm-6.9,0h-2.3v-1.725h2.3Zm-6.9,0h-2.3v-1.725h2.3Zm-6.9,0h-2.3v-1.725h2.3Zm-6.9,0h-2.3v-1.725h2.3Zm-6.9,0h-2.3v-1.725h2.3Zm-6.9,0h-2.3v-1.725h2.3Zm-6.9,0h-2.3v-1.725h2.3Zm-6.9,0h-2.3v-1.725h2.3Zm-6.9,0h-2.3v-1.725h2.3Zm-6.9,0h-2.3v-1.725h2.3Zm-6.9,0h-2.3v-1.725h2.3Zm-6.9,0h-2.3v-1.725h2.3Zm-6.9,0h-2.3v-1.725h2.3Zm-6.9,0h-2.3v-1.725h2.3Zm-6.9,0h-2.3v-1.725h2.3Zm-6.9,0h-2.3v-1.725h2.3Zm-6.9,0h-2.3v-1.725h2.3Zm-6.9,0h-2.3v-1.725h2.3Zm-6.9,0h-2.3v-1.725h2.3Zm-6.9,0h-2.3v-1.725h2.3Zm-6.9,0h-2.3v-1.725h2.3Zm-6.9,0h-2.3v-1.725h2.3Zm-6.9,0h-2.3v-1.725h2.3Zm-6.9,0h-2.3v-1.725h2.3Zm-6.9,0h-2.3v-1.725h2.3Z" transform="translate(-386.994 9630.469)" fill="#3c89ff"/>
    <path id="Trazado_240713" data-name="Trazado 240713" d="M1018.677,72.9a18.143,18.143,0,0,0-5.291.786c2.212-18.93-15.645-35.171-34.268-31.246a54.48,54.48,0,0,0-9.474-20.58c-25.225-34.866-81-26.284-95.144,13.433a37.93,37.93,0,0,0-34.468,6.445c-27.986,21.08-11.9,68.21,23.374,67.5h155.271a18.155,18.155,0,0,0,15.711-9.048c7.117-11.632-2.02-27.635-15.711-27.288" transform="translate(-408.316 10632.98)" fill="#3c89ff"/>
    <path id="Trazado_241299" data-name="Trazado 241299" d="M0,0H6.242V26.749H0Z" transform="translate(482.768 10691.609)" fill="#fff"/>
    <path id="Trazado_240714" data-name="Trazado 240714" d="M1099.7,248.823a2.665,2.665,0,0,1-1.221-.22,1.682,1.682,0,0,1-.688-.918l-.4-1.046q-.716.606-1.377,1.065a8.7,8.7,0,0,1-1.368.78,6.758,6.758,0,0,1-1.505.477,9.28,9.28,0,0,1-1.772.156,7.772,7.772,0,0,1-2.368-.34,4.939,4.939,0,0,1-1.808-1,4.4,4.4,0,0,1-1.147-1.643,5.927,5.927,0,0,1-.4-2.267,4.755,4.755,0,0,1,.514-2.074,5.119,5.119,0,0,1,1.781-1.937,11.327,11.327,0,0,1,3.415-1.459,22.918,22.918,0,0,1,5.416-.661v-.807a3.491,3.491,0,0,0-.688-2.414,2.533,2.533,0,0,0-1.955-.743,5.185,5.185,0,0,0-1.652.22,7.379,7.379,0,0,0-1.147.5q-.505.275-.982.5a2.7,2.7,0,0,1-1.138.22,1.638,1.638,0,0,1-.991-.294,2.543,2.543,0,0,1-.661-.7l-1.028-1.781a11.573,11.573,0,0,1,3.828-2.267,13.416,13.416,0,0,1,4.507-.744,8.245,8.245,0,0,1,3.112.56,6.7,6.7,0,0,1,2.35,1.561,6.824,6.824,0,0,1,1.478,2.377,8.553,8.553,0,0,1,.514,3.011v11.9Zm-6.536-3.47a4.514,4.514,0,0,0,1.928-.386,5.863,5.863,0,0,0,1.671-1.248v-2.644a18.943,18.943,0,0,0-2.809.294,6.823,6.823,0,0,0-1.744.551,2.11,2.11,0,0,0-.89.753,1.782,1.782,0,0,0-.248.918,1.594,1.594,0,0,0,.532,1.368,2.6,2.6,0,0,0,1.561.395" transform="translate(-593.453 10469.535)" fill="#fff"/>
    <path id="Trazado_240715" data-name="Trazado 240715" d="M1167.054,248.823a2.664,2.664,0,0,1-1.221-.22,1.683,1.683,0,0,1-.689-.918l-.4-1.046q-.716.606-1.377,1.065a8.728,8.728,0,0,1-1.368.78,6.759,6.759,0,0,1-1.505.477,9.278,9.278,0,0,1-1.771.156,7.769,7.769,0,0,1-2.368-.34,4.936,4.936,0,0,1-1.808-1,4.4,4.4,0,0,1-1.147-1.643,5.929,5.929,0,0,1-.4-2.267,4.755,4.755,0,0,1,.514-2.074,5.118,5.118,0,0,1,1.781-1.937,11.331,11.331,0,0,1,3.415-1.459,22.917,22.917,0,0,1,5.416-.661v-.807a3.491,3.491,0,0,0-.688-2.414,2.533,2.533,0,0,0-1.955-.743,5.184,5.184,0,0,0-1.652.22,7.38,7.38,0,0,0-1.147.5q-.505.275-.982.5a2.7,2.7,0,0,1-1.138.22,1.638,1.638,0,0,1-.991-.294,2.553,2.553,0,0,1-.661-.7l-1.028-1.781a11.575,11.575,0,0,1,3.828-2.267,13.417,13.417,0,0,1,4.507-.744,8.247,8.247,0,0,1,3.112.56,6.7,6.7,0,0,1,2.349,1.561,6.819,6.819,0,0,1,1.478,2.377,8.55,8.55,0,0,1,.514,3.011v11.9Zm-6.536-3.47a4.514,4.514,0,0,0,1.928-.386,5.863,5.863,0,0,0,1.671-1.248v-2.644a18.954,18.954,0,0,0-2.809.294,6.822,6.822,0,0,0-1.744.551,2.111,2.111,0,0,0-.89.753,1.782,1.782,0,0,0-.248.918,1.6,1.6,0,0,0,.532,1.368,2.6,2.6,0,0,0,1.561.395" transform="translate(-641.437 10469.535)" fill="#fff"/>
    <path id="Trazado_240716" data-name="Trazado 240716" d="M1236.047,208.588a2.334,2.334,0,0,1-.579.661,1.293,1.293,0,0,1-.78.221,1.907,1.907,0,0,1-.909-.266q-.487-.266-1.1-.6a9.18,9.18,0,0,0-1.4-.6,5.629,5.629,0,0,0-1.8-.266,3.87,3.87,0,0,0-2.6.744,2.529,2.529,0,0,0-.854,2.01,1.85,1.85,0,0,0,.514,1.34,4.432,4.432,0,0,0,1.349.918,14.458,14.458,0,0,0,1.91.707q1.074.322,2.194.716a19.77,19.77,0,0,1,2.193.927,7.326,7.326,0,0,1,1.909,1.358,6.339,6.339,0,0,1,1.349,2.011,7.149,7.149,0,0,1,.514,2.854,9.3,9.3,0,0,1-.642,3.47,8.124,8.124,0,0,1-1.864,2.818,8.653,8.653,0,0,1-3.01,1.891,11.274,11.274,0,0,1-4.066.688,13.03,13.03,0,0,1-2.543-.257,15.058,15.058,0,0,1-2.506-.725,14.519,14.519,0,0,1-2.276-1.111,9.67,9.67,0,0,1-1.855-1.432l1.836-2.9a1.84,1.84,0,0,1,.578-.523,1.509,1.509,0,0,1,.78-.211,2.093,2.093,0,0,1,1.111.349q.56.349,1.267.771a10.244,10.244,0,0,0,1.625.771,6.089,6.089,0,0,0,2.166.349,4.123,4.123,0,0,0,2.625-.744,2.83,2.83,0,0,0,.936-2.359,2.231,2.231,0,0,0-.514-1.523,3.978,3.978,0,0,0-1.349-.973,12.506,12.506,0,0,0-1.9-.68q-1.065-.293-2.185-.651a15.987,15.987,0,0,1-2.185-.881,6.883,6.883,0,0,1-1.9-1.377,6.432,6.432,0,0,1-1.35-2.13,8.46,8.46,0,0,1-.514-3.148,7.468,7.468,0,0,1,.606-2.937,7.583,7.583,0,0,1,1.781-2.552,8.767,8.767,0,0,1,2.882-1.79,10.643,10.643,0,0,1,3.911-.67,14.669,14.669,0,0,1,2.4.193,12.582,12.582,0,0,1,2.212.569,12.149,12.149,0,0,1,1.955.9,9.009,9.009,0,0,1,1.625,1.184Z" transform="translate(-688.602 10488.456)" fill="#fff"/>
    <path id="Trazado_240717" data-name="Trazado 240717" d="M457.735,1179.928h41.308l-19.515-36.311H414.544l19.515,36.311H442.2l6.869,12.781Z" transform="translate(-115.338 9818.224)" fill="#ffc861"/>
    <path id="Trazado_240718" data-name="Trazado 240718" d="M535.931,1187.476H514.984a.863.863,0,1,1,0-1.725h20.948a.863.863,0,0,1,0,1.725" transform="translate(-186.28 9788.205)" fill="#fff"/>
    <path id="Trazado_240719" data-name="Trazado 240719" d="M542.068,1216.693H507.975a.863.863,0,1,1,0-1.725h34.093a.863.863,0,1,1,0,1.725" transform="translate(-181.287 9767.39)" fill="#fff"/>
    <path id="Trazado_241300" data-name="Trazado 241300" d="M0,0H610V465.565H0Z" transform="translate(180 10632.982)" fill="none"/>
  </g>
</svg>
