<svg xmlns="http://www.w3.org/2000/svg" width="295.199" height="309.214" viewBox="0 0 295.199 309.214">
  <g id="Grupo_173270" data-name="Grupo 173270" transform="translate(-1123.924 -13212.208)">
    <g id="Grupo_173269" data-name="Grupo 173269">
      <path id="Trazado_238009" data-name="Trazado 238009" d="M85.874,1002.656h-6.5l-3.484,12.189h6.981l-4.359,17.025,12.741-21.68H83.722Z" transform="translate(1151.547 12347.277)" fill="#fbb040"/>
      <path id="Trazado_238010" data-name="Trazado 238010" d="M16.046,1023.748h-6.5l-3.481,12.188h6.979l-4.359,17.026,12.743-21.679H13.892Z" transform="translate(1157.663 12345.431)" fill="#fbb040"/>
      <path id="Trazado_238011" data-name="Trazado 238011" d="M236.305,1023.041h-6.5l-3.481,12.187h6.98l-4.357,17.026,12.741-21.679h-7.535Z" transform="translate(1138.371 12345.492)" fill="#fbb040"/>
      <path id="Trazado_238012" data-name="Trazado 238012" d="M109.281,1011.457H101l-4.439,15.538h8.9L99.9,1048.7l16.243-27.638h-9.6Z" transform="translate(1149.737 12346.507)" fill="#fbb040"/>
      <path id="Trazado_238013" data-name="Trazado 238013" d="M136.385,1002.656h-6.5l-3.482,12.189h6.98l-4.357,17.025,12.741-21.68h-7.535Z" transform="translate(1147.123 12347.277)" fill="#fbb040"/>
      <path id="Trazado_238014" data-name="Trazado 238014" d="M159.792,1011.457H151.5l-4.437,15.538h8.9l-5.556,21.7,16.243-27.638h-9.6Z" transform="translate(1145.313 12346.507)" fill="#fbb040"/>
      <path id="Trazado_241249" data-name="Trazado 241249" d="M-56.782-10.5h-.54l-3.96,6.42-3.96-6.42H-65.8l4.245,6.915V0h.51V-3.585ZM-50.407.06a5.237,5.237,0,0,0,5.43-5.31,5.237,5.237,0,0,0-5.43-5.31,5.233,5.233,0,0,0-5.415,5.31A5.233,5.233,0,0,0-50.407.06Zm0-.465a4.764,4.764,0,0,1-4.9-4.845,4.764,4.764,0,0,1,4.9-4.845,4.768,4.768,0,0,1,4.92,4.845A4.768,4.768,0,0,1-50.407-.405Zm12.69.465c2.55,0,4.11-1.5,4.11-4.485V-10.5H-34.1v6.06c0,2.715-1.32,4.035-3.615,4.035-2.31,0-3.615-1.32-3.615-4.035V-10.5h-.51v6.075C-41.842-1.44-40.267.06-37.717.06Zm20.43-10.56v4.935h-7.365V-10.5h-.51V0h.51V-5.1h7.365V0h.51V-10.5ZM-4.643,0h.555l-4.86-10.5h-.5L-14.3,0h.555l1.41-3.075h6.285Zm-7.5-3.51,2.955-6.4,2.94,6.4ZM5.452-10.5,1.057-.66l-4.41-9.84h-.57L.787,0h.495l4.71-10.5ZM8.767-.465V-5.1h5.7v-.465h-5.7v-4.47h6.375V-10.5H8.257V0h7.1V-.465ZM28.867-5.4a2.385,2.385,0,0,0,1.92-2.43c0-1.755-1.365-2.67-3.555-2.67h-4.26V0h4.56c2.565,0,3.825-.99,3.825-2.76A2.537,2.537,0,0,0,28.867-5.4Zm-1.62-4.65c1.92,0,3.045.765,3.045,2.25s-1.125,2.25-3.045,2.25H23.482v-4.5Zm.315,9.6h-4.08V-5.115h4.08c2.145,0,3.285.72,3.285,2.34S29.707-.45,27.562-.45Zm7.62-.015V-5.1h5.7v-.465h-5.7v-4.47h6.375V-10.5H34.672V0h7.1V-.465Zm10.47,0V-5.1h5.7v-.465h-5.7v-4.47h6.375V-10.5H45.142V0h7.1V-.465ZM63.487-10.5V-.93L56.032-10.5h-.42V0h.51V-9.57L63.577,0H64V-10.5ZM-40.365,5.33a1.41,1.41,0,0,0-.923.277.9.9,0,0,0-.338.735.831.831,0,0,0,.413.727,7.542,7.542,0,0,0,1.9.637,5.362,5.362,0,0,1,2.318,1.1,2.723,2.723,0,0,1,.825,2.145,2.831,2.831,0,0,1-1.058,2.288,4.216,4.216,0,0,1-2.782.877,6.44,6.44,0,0,1-4.485-1.845l1.4-1.71A4.963,4.963,0,0,0-39.96,12.05a1.646,1.646,0,0,0,1.013-.278.891.891,0,0,0,.368-.75.874.874,0,0,0-.39-.75,5.087,5.087,0,0,0-1.545-.562,6.719,6.719,0,0,1-2.677-1.133,2.674,2.674,0,0,1-.847-2.19,2.715,2.715,0,0,1,1.072-2.3,4.316,4.316,0,0,1,2.678-.81,6.44,6.44,0,0,1,2.1.36,5.624,5.624,0,0,1,1.83,1.02l-1.185,1.71A4.617,4.617,0,0,0-40.365,5.33Zm10.995.21V14h-2.34V5.54h-2.97V3.515h8.28V5.54Zm13.635,1.455A3.088,3.088,0,0,1-17.73,10.25L-15.075,14h-2.88l-2.325-3.345H-21.9V14h-2.34V3.515h3.975a5.7,5.7,0,0,1,3.488.825A3.183,3.183,0,0,1-15.735,6.995ZM-20.19,8.63a2.516,2.516,0,0,0,1.635-.39A1.584,1.584,0,0,0-18.12,7a1.326,1.326,0,0,0-.45-1.163,2.88,2.88,0,0,0-1.575-.315H-21.9v3.1Zm10.08,2.663a1.916,1.916,0,0,0,1.575.728,1.9,1.9,0,0,0,1.567-.728A3.113,3.113,0,0,0-6.39,9.305V3.515h2.34V9.38a4.657,4.657,0,0,1-1.26,3.5A4.439,4.439,0,0,1-8.535,14.1a4.45,4.45,0,0,1-3.233-1.23,4.646,4.646,0,0,1-1.267-3.5V3.515h2.34v5.79A3.085,3.085,0,0,0-10.11,11.292Zm13.755.638a3.453,3.453,0,0,0,2.82-1.365l1.5,1.545a5.462,5.462,0,0,1-4.208,2.01,5.476,5.476,0,0,1-3.99-1.53A5.17,5.17,0,0,1-1.8,8.727,5.218,5.218,0,0,1-.2,4.835,5.381,5.381,0,0,1,3.7,3.275,5.538,5.538,0,0,1,8.025,5.24L6.57,6.89A3.409,3.409,0,0,0,3.81,5.51a3.217,3.217,0,0,0-2.257.863A3,3,0,0,0,.615,8.7,3.173,3.173,0,0,0,1.5,11.045,2.921,2.921,0,0,0,3.645,11.93ZM10.26,3.515H12.6V7.82l3.96-4.305h2.9L15.285,8.15q.54.75,2,2.8T19.455,14h-2.73L13.65,9.86,12.6,11.03V14H10.26ZM32.13,8.6a2.385,2.385,0,0,0,1.92-2.43c0-1.755-1.365-2.67-3.555-2.67h-4.26V14h4.56c2.565,0,3.825-.99,3.825-2.76A2.537,2.537,0,0,0,32.13,8.6ZM30.51,3.95c1.92,0,3.045.765,3.045,2.25S32.43,8.45,30.51,8.45H26.745V3.95Zm.315,9.6h-4.08V8.885h4.08c2.145,0,3.285.72,3.285,2.34C34.11,12.83,32.97,13.55,30.825,13.55ZM44.925,3.5h-.54l-3.96,6.42L36.465,3.5H35.91l4.245,6.915V14h.51V10.415Z" transform="translate(1264.811 13414.172)" fill="#12263f"/>
      <path id="Trazado_238027" data-name="Trazado 238027" d="M0,0H33.239V120.388H0Z" transform="matrix(0.071, -0.997, 0.997, 0.071, 1208.687, 13512.905)" fill="#e2c140"/>
      <path id="Trazado_241250" data-name="Trazado 241250" d="M43.9-18.786H38.13V-25.42H24.366v6.634h-5.89L34.844-43.4h-15L1.426-16.74v9.3H23.932V0h14.2V-7.44H43.9ZM65.6.992C77.066.992,85.25-7.316,85.25-21.7S77.066-44.392,65.6-44.392,45.942-36.084,45.942-21.7,54.126.992,65.6.992Zm0-11.718c-2.852,0-4.96-2.6-4.96-10.974s2.108-10.974,4.96-10.974,4.96,2.6,4.96,10.974S68.448-10.726,65.6-10.726Zm65.348-8.06h-5.766V-25.42H111.414v6.634h-5.89L121.892-43.4h-15L88.474-16.74v9.3H110.98V0h14.2V-7.44h5.766Z" transform="translate(1204.954 13481.051)" fill="#173d7a"/>
      <path id="Trazado_241251" data-name="Trazado 241251" d="M12.936-15.378v2.442H4.73v4.07H12.1v2.31H4.73v4.114H13.2V0H2.134V-15.378ZM28.8-10.384q0,3.806-3.322,4.8L29.5,0H26.2L22.528-5.17h-3.41V0h-2.6V-15.378h5.72q3.52,0,5.038,1.188A4.537,4.537,0,0,1,28.8-10.384Zm-6.446,2.86a4.757,4.757,0,0,0,2.992-.682,2.742,2.742,0,0,0,.792-2.189,2.341,2.341,0,0,0-.814-2.068,5.416,5.416,0,0,0-2.9-.561h-3.3v5.5Zm22.462-2.86q0,3.806-3.322,4.8L45.518,0h-3.3L38.544-5.17h-3.41V0h-2.6V-15.378h5.72q3.52,0,5.038,1.188A4.537,4.537,0,0,1,44.814-10.384Zm-6.446,2.86a4.757,4.757,0,0,0,2.992-.682,2.742,2.742,0,0,0,.792-2.189,2.341,2.341,0,0,0-.814-2.068,5.416,5.416,0,0,0-2.9-.561h-3.3v5.5Zm21.153-4.224a5.16,5.16,0,0,0-3.861-1.628A5.16,5.16,0,0,0,51.8-11.748,5.474,5.474,0,0,0,50.226-7.8,5.474,5.474,0,0,0,51.8-3.85,5.16,5.16,0,0,0,55.66-2.222,5.16,5.16,0,0,0,59.521-3.85,5.474,5.474,0,0,0,61.094-7.8,5.474,5.474,0,0,0,59.521-11.748Zm1.9,9.625A7.929,7.929,0,0,1,55.66.154,7.929,7.929,0,0,1,49.9-2.123,7.61,7.61,0,0,1,47.564-7.8,7.61,7.61,0,0,1,49.9-13.475a7.929,7.929,0,0,1,5.764-2.277,7.929,7.929,0,0,1,5.764,2.277A7.61,7.61,0,0,1,63.756-7.8,7.61,7.61,0,0,1,61.424-2.123ZM79.31-10.384q0,3.806-3.322,4.8L80.014,0h-3.3L73.04-5.17H69.63V0h-2.6V-15.378h5.72q3.52,0,5.038,1.188A4.537,4.537,0,0,1,79.31-10.384Zm-6.446,2.86a4.757,4.757,0,0,0,2.992-.682,2.742,2.742,0,0,0,.792-2.189,2.341,2.341,0,0,0-.814-2.068,5.416,5.416,0,0,0-2.9-.561h-3.3v5.5Z" transform="translate(1226.33 13504.061) rotate(4.057)" fill="#fff"/>
      <g id="Grupo_169693" data-name="Grupo 169693" transform="translate(1123.924 13212.208)">
        <g id="Grupo_169686" data-name="Grupo 169686">
          <path id="Trazado_238015" data-name="Trazado 238015" d="M268.205,929.17a16.079,16.079,0,0,0-20.46-7.875,16.052,16.052,0,0,0-23.778-1.479,48.617,48.617,0,0,1,19.516,32.939h33.976a14.754,14.754,0,0,0-9.254-23.585Z" transform="translate(14.654 -850.888)" fill="#4bbfe8"/>
          <path id="Trazado_238016" data-name="Trazado 238016" d="M97.425,866.471A52.18,52.18,0,0,1,134.5,881.817a52.748,52.748,0,0,1,42.267,6.3c.046-.571.073-1.147.073-1.73a21.6,21.6,0,0,0-18.051-21.3,23.524,23.524,0,0,0-29.933-11.521A23.517,23.517,0,0,0,87.232,864.6a23.484,23.484,0,0,0-16.978,9.463A52.469,52.469,0,0,1,97.425,866.471Z" transform="translate(28.117 -844.71)" fill="#4bbfe8"/>
          <path id="Trazado_238017" data-name="Trazado 238017" d="M9.41,923.985a52.332,52.332,0,0,1,28.048-15.763,52.469,52.469,0,0,1,7.172-15.371,24.265,24.265,0,0,0-16.779.5,24.331,24.331,0,0,0-43.062,11.42A24.331,24.331,0,0,0-37.56,929.022a24.2,24.2,0,0,0,3.141,11.953H-1.14A52.38,52.38,0,0,1,9.41,923.985Z" transform="translate(37.56 -848.168)" fill="#4bbfe8"/>
        </g>
        <g id="Grupo_169692" data-name="Grupo 169692" transform="translate(41.238 30.008)">
          <path id="Trazado_238018" data-name="Trazado 238018" d="M208.231,980.781a40.585,40.585,0,0,0-25.45-64.873,44.225,44.225,0,0,0-56.28-21.662A44.213,44.213,0,0,0,48.248,915a44.2,44.2,0,0,0-34.9,65.784Z" transform="translate(-7.637 -877.599)" fill="#fff"/>
          <g id="Grupo_169691" data-name="Grupo 169691" transform="translate(59.389 40.226)">
            <g id="Grupo_169689" data-name="Grupo 169689">
              <g id="Grupo_169687" data-name="Grupo 169687">
                <circle id="Elipse_11711" data-name="Elipse 11711" cx="7.758" cy="7.758" r="7.758" transform="translate(2.394 12.998) rotate(-1.432)" fill="#414042"/>
                <path id="Trazado_238019" data-name="Trazado 238019" d="M90.083,940.108a4.073,4.073,0,1,1-4.074-4.071A4.074,4.074,0,0,1,90.083,940.108Z" transform="translate(-73.534 -922.943)" fill="#fff"/>
                <path id="Trazado_238020" data-name="Trazado 238020" d="M72.727,929.963l21.979,14.223s3.493-16.033,2.974-16.033-7.888-6.466-15.387-6.466" transform="translate(-72.727 -921.686)" fill="#fff"/>
              </g>
              <g id="Grupo_169688" data-name="Grupo 169688" transform="translate(65.296)">
                <circle id="Elipse_11712" data-name="Elipse 11712" cx="7.758" cy="7.758" r="7.758" transform="translate(6.672 28.077) rotate(-88.248)" fill="#414042"/>
                <path id="Trazado_238021" data-name="Trazado 238021" d="M153.56,940.108a4.073,4.073,0,1,0,4.072-4.071A4.074,4.074,0,0,0,153.56,940.108Z" transform="translate(-145.103 -922.943)" fill="#fff"/>
                <path id="Trazado_238022" data-name="Trazado 238022" d="M169.3,929.963l-21.982,14.223s-3.49-16.033-2.974-16.033,7.887-6.466,15.387-6.466" transform="translate(-144.291 -921.686)" fill="#fff"/>
              </g>
            </g>
            <g id="Grupo_169690" data-name="Grupo 169690" transform="translate(33.759 33.05)">
              <path id="Trazado_238023" data-name="Trazado 238023" d="M131.39,970.421a1.121,1.121,0,0,1-1.12-1.121,9.15,9.15,0,1,0-18.3,0,1.121,1.121,0,0,1-2.243,0,11.391,11.391,0,0,1,22.782,0A1.119,1.119,0,0,1,131.39,970.421Z" transform="translate(-109.727 -957.909)" fill="#414042"/>
            </g>
          </g>
          <path id="Trazado_238024" data-name="Trazado 238024" d="M216.717,962.372a40.57,40.57,0,0,0-1.668-11.519c-24.044,15.066-97.976,50.362-205.015.233A44.262,44.262,0,0,0,13.346,987.2H208.231A40.4,40.4,0,0,0,216.717,962.372Z" transform="translate(-7.637 -884.015)" fill="#414042" opacity="0.1"/>
        </g>
      </g>
      <g id="Grupo_169694" data-name="Grupo 169694" transform="translate(1343.685 13218.951)">
        <path id="Trazado_238025" data-name="Trazado 238025" d="M228.434,852.1a24.5,24.5,0,0,0-21.11,36.944L203.3,900.522l10.261-4.449A24.5,24.5,0,1,0,228.434,852.1Z" transform="translate(-203.297 -852.101)" fill="#fff"/>
        <text id="Whoo_oops_" data-name="Whoo
oops!" transform="translate(8.338 22.429)" fill="#4bbfe8" font-size="10" font-family="Montserrat-Bold, Montserrat" font-weight="700"><tspan x="0" y="0">Whoo</tspan><tspan x="0" y="9">oops!</tspan></text>
        <path id="Trazado_238026" data-name="Trazado 238026" d="M228.434,902.1a24.5,24.5,0,0,0,19.952-38.72c-4.842,10.857-16.251,27.038-41.22,27.107L203.3,901.51l10.261-4.449A24.4,24.4,0,0,0,228.434,902.1Z" transform="translate(-203.297 -853.089)" fill="#414042" opacity="0.1"/>
      </g>
    </g>
  </g>
</svg>
