<svg id="Grupo_169556" data-name="Grupo 169556" xmlns="http://www.w3.org/2000/svg" width="64.689" height="59.188" viewBox="0 0 64.689 59.188">
  <path id="Trazado_237564" data-name="Trazado 237564" d="M503.92,91.043c.278-.785.318-1.627.6-2.414a11.923,11.923,0,0,1,9.741-8.21c.367-.064.522-.162.5-.59a20.182,20.182,0,0,1,39.2-7.545,16.6,16.6,0,0,1,.638,2.238.524.524,0,0,0,.548.473A14.733,14.733,0,0,1,568.1,85.908a14.9,14.9,0,0,1-7.879,17.139,16.694,16.694,0,0,1-6.461,1.5c-.681-.021-1.205-.241-1.291-1.018l0-.707c.249-.86.664-1.177,1.672-1.193a11.908,11.908,0,0,0,10.958-15.738,11.707,11.707,0,0,0-7.965-7.662A21.377,21.377,0,0,0,553.7,77.7a1.68,1.68,0,0,1-1.686-1.577,17.834,17.834,0,0,0-1.866-5.346,16.951,16.951,0,0,0-9.8-8.169,16.562,16.562,0,0,0-11.982.411A16.939,16.939,0,0,0,517.744,76.8a13.97,13.97,0,0,0-.031,3.963,4.073,4.073,0,0,1,.023.5c.007,1.255-.534,1.814-1.789,1.851a9.659,9.659,0,0,0-4.8,1.382,9.266,9.266,0,0,0-3.029,12.722,9.118,9.118,0,0,0,7.542,4.4c.084,0,.168.007.252.016,1,.112,1.372.464,1.51,1.433v.2c-.082.75-.2,1.2-1.4,1.27a13.119,13.119,0,0,1-5.173-1.212,12.039,12.039,0,0,1-6.792-9.127c-.024-.134.042-.305-.138-.384Z" transform="translate(-503.92 -58.794)" fill="#ff2c9c"/>
  <g id="Grupo_169543" data-name="Grupo 169543" transform="translate(16.178 29.547)">
    <path id="Trazado_237565" data-name="Trazado 237565" d="M545.037,106.8A14.82,14.82,0,1,0,559.86,121.65,14.835,14.835,0,0,0,545.037,106.8Zm-.011,26.947a12.122,12.122,0,1,1,12.112-12.134A12.045,12.045,0,0,1,545.026,133.752Z" transform="translate(-530.207 -106.805)" fill="#ff2c9c"/>
  </g>
  <g id="Grupo_169544" data-name="Grupo 169544" transform="translate(25.203 36.451)">
    <path id="Trazado_237566" data-name="Trazado 237566" d="M554.3,129.121h2.309v1.769H554.3v3.859h-2.252V130.89h-7.18v-1.276l7.042-11.591h2.39Zm-7.008,0h4.756v-7.846l-.069-.012-.219.574Z" transform="translate(-544.872 -118.023)" fill="#ff2c9c"/>
  </g>
</svg>
