<svg xmlns="http://www.w3.org/2000/svg" width="69.133" height="52.887" viewBox="0 0 69.133 52.887">
  <g id="Grupo_167368" data-name="Grupo 167368" transform="translate(-995.364 -86.434)">
    <path id="Trazado_194690" data-name="Trazado 194690" d="M1019.676,127.069l-4.444-1.692v8.767l5.74-.623c-1.593,1.707-3.844,1.135-5.707,1.841-.036.056-.1.108-.1.167-.841,6.565-.841,6.564,5.587,6.554,1.306,0,2.611,0,4.4,0a7.063,7.063,0,0,1,.192,1.871,36.745,36.745,0,0,1-.829,5.844c-.385,1.487-.276,2.367,1.325,2.777a12.836,12.836,0,0,1,1.83.814l2.984-5.084c1.752.506,1.759,1.472.993,2.944a19.182,19.182,0,0,1-36.184-6.864,18.9,18.9,0,0,1,11.733-19.4,26.846,26.846,0,0,1,8.873-1.4C1019.435,123.5,1019.442,123.779,1019.676,127.069Zm-4.622,22.721c2.512.476,4.695.949,6.9,1.259.445.062,1.334-.418,1.411-.779.486-2.271.8-4.578,1.219-7.158-3.159,0-5.843-.042-8.523.051-.348.012-.94.7-.963,1.1C1015,146.088,1015.054,147.925,1015.054,149.791ZM1004.5,143.2l1.3,8,8.056-1.317V143.2Zm9.516-7.812c-2.487-.464-4.672-.93-6.879-1.236a1.659,1.659,0,0,0-1.4.767,43.714,43.714,0,0,0-.94,5.829,1.73,1.73,0,0,0,1.124,1.278,67.694,67.694,0,0,0,6.909-.012,1.628,1.628,0,0,0,1.129-1.109C1014.091,139.084,1014.02,137.246,1014.02,135.392Zm-12.417-3.528a14.957,14.957,0,0,0-3.775,10.089h5.726c.236-1.866.377-3.624.692-5.351C1004.843,133.342,1004.885,133.349,1001.6,131.864Zm-3.852,11.388a15.667,15.667,0,0,0,3.324,9.434,1.717,1.717,0,0,0,1.627.1c.8-.479,2.091-1.291,2.041-1.867a77.535,77.535,0,0,0-1.343-7.669Zm24.918,8.914-7.452-1.237V159.3C1018.41,159.507,1021.028,157.053,1022.669,152.166Zm-16.094-.028c1.116,4.649,4.293,7.573,7.28,7.023V150.91Zm7.3-17.836v-8.434c-3.334-.118-6.369,2.852-7.263,7.184Zm12.728,20.39-.2-.692-2.6-1.172-2.854,5.006.319.4Zm-24.579-.3,5.873,3.844.281-.384-2.926-5.119Zm6.135-27-.332-.463-5.766,3.922,3.176,1.52Z" transform="translate(0 -22.438)" fill="#ff2c9c"/>
    <path id="Trazado_194691" data-name="Trazado 194691" d="M1097.032,107.574c-.87,10.977-5.2,19.7-15.4,24.744a3.519,3.519,0,0,1-2.69.078c-8.829-4.146-13.463-11.417-15.1-20.8-.326-1.871-.3-3.8-.484-5.7a1.58,1.58,0,0,1,1.365-1.973c4.924-1.131,9.091-3.737,13.028-6.78,2.5-1.931,2.512-1.941,4.955.019,3.847,3.086,7.964,5.652,12.851,6.745C1097.972,104.45,1096.6,106.358,1097.032,107.574Zm-1.777-1.731a38.312,38.312,0,0,1-5.454-2.021,82.135,82.135,0,0,1-8.315-5.261c-1.1-.8-1.66-.783-2.638.052a32.9,32.9,0,0,1-12,6.654,1.945,1.945,0,0,0-1.624,2.4c.685,8.914,4.069,16.361,11.6,21.558,1.789,1.234,3.453,2.038,5.831.538C1091.443,124.227,1094.755,115.979,1095.255,105.842Z" transform="translate(-41.069 -5.596)" fill="#ff2c9c"/>
    <path id="Trazado_194692" data-name="Trazado 194692" d="M1100.994,160.8c4.151,2.864,8.574,2.444,11.022-.933,2.785-3.842,1.735-7.867-3.1-11.485l.845-2.714A10.317,10.317,0,0,1,1116.3,158.3c-1.461,5.225-6.944,8.7-12.082,7.435a4.028,4.028,0,0,0-4.149,1.036,12.161,12.161,0,0,1-11.114,2.656,3.623,3.623,0,0,0-3.255.67,32.014,32.014,0,0,1-3.938,2.038l4.882-6.756C1092.536,167.867,1097.422,166.589,1100.994,160.8Z" transform="translate(-52.192 -35.782)" fill="#ff2c9c"/>
    <path id="Trazado_194693" data-name="Trazado 194693" d="M995.825,109.266c1.36-7.688,9.1-13.9,17.571-13.967a3.19,3.19,0,0,0,3-1.652,15.984,15.984,0,0,1,20.136-5.656c-1.167,1.433-2.229,2.293-4.414,1.905-6.082-1.078-11.273,1.729-14.034,7.218a1.954,1.954,0,0,1-2.063,1.358c-8.674-.342-15.245,3.329-19.894,10.587C996.07,109.154,995.93,109.2,995.825,109.266Z" transform="translate(-0.278)" fill="#ff2c9c"/>
    <path id="Trazado_194694" data-name="Trazado 194694" d="M1087.41,111.215v25.611a20.922,20.922,0,0,1-10.131-12.484c-.643-1.988-1.5-4.15-1.269-6.113.276-2.3,3.267-1.757,4.794-2.971a29.639,29.639,0,0,1,3.255-1.841C1085.123,112.775,1086.141,112.053,1087.41,111.215Z" transform="translate(-48.696 -14.971)" fill="#ff2c9c"/>
  </g>
</svg>
